<svg xmlns="http://www.w3.org/2000/svg" xmlns:xlink="http://www.w3.org/1999/xlink" width="1366" zoomAndPan="magnify" viewBox="0 0 1024.5 576" height="768" preserveAspectRatio="xMidYMid meet" version="1.0"><defs><filter x="0%" y="0%" width="100%" height="100%" id="a8d066b414"><feColorMatrix values="0 0 0 0 1 0 0 0 0 1 0 0 0 0 1 0 0 0 1 0" color-interpolation-filters="sRGB"/></filter><clipPath id="69435d605e"><path d="M 0 0.140625 L 1024 0.140625 L 1024 575.859375 L 0 575.859375 Z M 0 0.140625 " clip-rule="nonzero"/></clipPath><clipPath id="2a22e2bf1b"><path d="M 649 0.140625 L 1024 0.140625 L 1024 557 L 649 557 Z M 649 0.140625 " clip-rule="nonzero"/></clipPath><mask id="efabe7050e"><g filter="url(#a8d066b414)"><rect x="-102.45" width="1229.4" fill="#000000" y="-57.6" height="691.2" fill-opacity="0.5"/></g></mask><clipPath id="d5e8024022"><path d="M 0.371094 0.140625 L 375 0.140625 L 375 556.820312 L 0.371094 556.820312 Z M 0.371094 0.140625 " clip-rule="nonzero"/></clipPath><clipPath id="20154fccc4"><rect x="0" width="375" y="0" height="557"/></clipPath><clipPath id="ffa6f7bfa8"><path d="M 0 123 L 471 123 L 471 575.859375 L 0 575.859375 Z M 0 123 " clip-rule="nonzero"/></clipPath><mask id="dde5abc1a9"><g filter="url(#a8d066b414)"><rect x="-102.45" width="1229.4" fill="#000000" y="-57.6" height="691.2" fill-opacity="0.5"/></g></mask><clipPath id="4d0c5e157b"><path d="M 0 2.726562 L 469.101562 2.726562 L 469.101562 452.859375 L 0 452.859375 Z M 0 2.726562 " clip-rule="nonzero"/></clipPath><clipPath id="b264fbaea2"><rect x="0" width="471" y="0" height="453"/></clipPath><clipPath id="06a5d6e818"><path d="M 0 0.140625 L 313 0.140625 L 313 470 L 0 470 Z M 0 0.140625 " clip-rule="nonzero"/></clipPath><mask id="6c72637375"><g filter="url(#a8d066b414)"><rect x="-102.45" width="1229.4" fill="#000000" y="-57.6" height="691.2" fill-opacity="0.5"/></g></mask><clipPath id="897dff0dd2"><path d="M 0 0.140625 L 310.753906 0.140625 L 310.753906 469.242188 L 0 469.242188 Z M 0 0.140625 " clip-rule="nonzero"/></clipPath><clipPath id="254557fc4b"><rect x="0" width="313" y="0" height="470"/></clipPath></defs><g clip-path="url(#69435d605e)"><path fill="#ffffff" d="M 0 0.140625 L 1024 0.140625 L 1024 575.859375 L 0 575.859375 Z M 0 0.140625 " fill-opacity="1" fill-rule="nonzero"/><path fill="#004aad" d="M 0 0.140625 L 1024 0.140625 L 1024 575.859375 L 0 575.859375 Z M 0 0.140625 " fill-opacity="1" fill-rule="nonzero"/></g><g clip-path="url(#2a22e2bf1b)"><g mask="url(#efabe7050e)"><g transform="matrix(1, 0, 0, 1, 649, 0.000000000000055289)"><g clip-path="url(#20154fccc4)"><g clip-path="url(#d5e8024022)"><path fill="#064498" d="M 411.941406 -266.277344 C 525.585938 -266.277344 628.480469 -220.210938 702.960938 -145.730469 C 777.4375 -71.253906 823.507812 31.640625 823.507812 145.285156 C 823.507812 258.933594 777.4375 361.828125 702.960938 436.304688 C 628.480469 510.78125 525.589844 556.851562 411.941406 556.851562 C 298.292969 556.851562 195.398438 510.78125 120.921875 436.304688 C 46.445312 361.828125 0.375 258.933594 0.375 145.285156 C 0.375 31.640625 46.445312 -71.253906 120.921875 -145.730469 C 195.398438 -220.210938 298.292969 -266.277344 411.941406 -266.277344 Z M 648.398438 -91.171875 C 587.886719 -151.679688 504.285156 -189.109375 411.941406 -189.109375 C 319.597656 -189.109375 235.992188 -151.679688 175.484375 -91.171875 C 114.972656 -30.660156 77.542969 52.941406 77.542969 145.289062 C 77.542969 237.632812 114.972656 321.234375 175.484375 381.746094 C 235.992188 442.257812 319.597656 479.6875 411.941406 479.6875 C 504.285156 479.6875 587.886719 442.257812 648.398438 381.746094 C 708.910156 321.234375 746.339844 237.632812 746.339844 145.289062 C 746.339844 52.945312 708.910156 -30.660156 648.398438 -91.171875 Z M 648.398438 -91.171875 " fill-opacity="1" fill-rule="nonzero"/></g></g></g></g></g><g clip-path="url(#ffa6f7bfa8)"><g mask="url(#dde5abc1a9)"><g transform="matrix(1, 0, 0, 1, 0, 123)"><g clip-path="url(#b264fbaea2)"><g clip-path="url(#4d0c5e157b)"><path fill="#064498" d="M 57.566406 2.726562 C 171.214844 2.726562 274.109375 48.796875 348.589844 123.277344 C 423.066406 197.753906 469.136719 300.648438 469.136719 414.292969 C 469.136719 527.941406 423.066406 630.835938 348.589844 705.3125 C 274.109375 779.789062 171.21875 825.859375 57.566406 825.859375 C -56.078125 825.859375 -158.972656 779.789062 -233.449219 705.3125 C -307.925781 630.832031 -353.996094 527.941406 -353.996094 414.292969 C -353.996094 300.644531 -307.925781 197.753906 -233.449219 123.277344 C -158.972656 48.796875 -56.078125 2.726562 57.566406 2.726562 Z M 294.027344 177.835938 C 233.515625 117.328125 149.914062 79.894531 57.566406 79.894531 C -34.773438 79.894531 -118.378906 117.328125 -178.886719 177.835938 C -239.398438 238.347656 -276.828125 321.949219 -276.828125 414.292969 C -276.828125 506.640625 -239.398438 590.242188 -178.886719 650.753906 C -118.378906 711.261719 -34.773438 748.691406 57.566406 748.691406 C 149.914062 748.691406 233.515625 711.261719 294.027344 650.753906 C 354.539062 590.242188 391.96875 506.636719 391.96875 414.292969 C 391.96875 321.953125 354.539062 238.347656 294.027344 177.835938 Z M 294.027344 177.835938 " fill-opacity="1" fill-rule="nonzero"/></g></g></g></g></g><g clip-path="url(#06a5d6e818)"><g mask="url(#6c72637375)"><g transform="matrix(1, 0, 0, 1, 0, 0.000000000000055289)"><g clip-path="url(#254557fc4b)"><g clip-path="url(#897dff0dd2)"><path fill="#064498" d="M -100.777344 -353.859375 C 12.871094 -353.859375 115.761719 -307.789062 190.242188 -233.308594 C 264.722656 -158.832031 310.792969 -55.9375 310.792969 57.707031 C 310.792969 171.355469 264.722656 274.25 190.242188 348.726562 C 115.761719 423.203125 12.871094 469.273438 -100.777344 469.273438 C -214.421875 469.273438 -317.320312 423.203125 -391.792969 348.726562 C -466.273438 274.246094 -512.34375 171.355469 -512.34375 57.707031 C -512.34375 -55.941406 -466.273438 -158.832031 -391.792969 -233.308594 C -317.316406 -307.789062 -214.421875 -353.859375 -100.777344 -353.859375 Z M 135.679688 -178.75 C 75.167969 -239.257812 -8.433594 -276.691406 -100.777344 -276.691406 C -193.121094 -276.691406 -276.722656 -239.257812 -337.234375 -178.75 C -397.742188 -118.238281 -435.171875 -34.636719 -435.171875 57.707031 C -435.171875 150.054688 -397.742188 233.65625 -337.234375 294.167969 C -276.722656 354.675781 -193.121094 392.105469 -100.777344 392.105469 C -8.433594 392.105469 75.167969 354.675781 135.679688 294.167969 C 196.191406 233.65625 233.621094 150.050781 233.621094 57.707031 C 233.621094 -34.632812 196.191406 -118.238281 135.679688 -178.75 Z M 135.679688 -178.75 " fill-opacity="1" fill-rule="nonzero"/></g></g></g></g></g></svg>