<svg xmlns="http://www.w3.org/2000/svg" xmlns:xlink="http://www.w3.org/1999/xlink" width="500" zoomAndPan="magnify" viewBox="0 0 375 374.999991" height="500" preserveAspectRatio="xMidYMid meet" version="1.0"><defs><clipPath id="b9fec782d2"><path d="M 4.292969 6.335938 L 370.707031 6.335938 L 370.707031 372.75 L 4.292969 372.75 Z M 4.292969 6.335938 " clip-rule="nonzero"/></clipPath><clipPath id="3b9fa7768f"><path d="M 187.5 6.335938 C 86.316406 6.335938 4.292969 88.359375 4.292969 189.542969 C 4.292969 290.726562 86.316406 372.75 187.5 372.75 C 288.683594 372.75 370.707031 290.726562 370.707031 189.542969 C 370.707031 88.359375 288.683594 6.335938 187.5 6.335938 Z M 187.5 6.335938 " clip-rule="nonzero"/></clipPath><clipPath id="8a09ea463e"><path d="M 131 106 L 311.601562 106 L 311.601562 311.601562 L 131 311.601562 Z M 131 106 " clip-rule="nonzero"/></clipPath><clipPath id="879fa81fe1"><path d="M 63.351562 63.351562 L 254 63.351562 L 254 255 L 63.351562 255 Z M 63.351562 63.351562 " clip-rule="nonzero"/></clipPath></defs><g clip-path="url(#b9fec782d2)"><g clip-path="url(#3b9fa7768f)"><path fill="#ffffff" d="M 4.292969 6.335938 L 370.707031 6.335938 L 370.707031 372.75 L 4.292969 372.75 Z M 4.292969 6.335938 " fill-opacity="1" fill-rule="nonzero"/></g></g><g clip-path="url(#8a09ea463e)"><path fill="#3c6a98" d="M 197.027344 311.632812 C 196.550781 311.648438 196.089844 311.574219 195.644531 311.40625 C 195.195312 311.242188 194.796875 310.996094 194.449219 310.671875 C 194.097656 310.34375 193.824219 309.964844 193.625 309.53125 C 193.429688 309.097656 193.320312 308.644531 193.304688 308.164062 C 193.285156 307.6875 193.359375 307.226562 193.527344 306.78125 C 193.695312 306.332031 193.941406 305.933594 194.265625 305.585938 C 194.589844 305.234375 194.96875 304.960938 195.402344 304.765625 C 195.835938 304.566406 196.292969 304.457031 196.769531 304.441406 C 200.480469 304.152344 204.191406 303.691406 207.816406 303.058594 C 208.28125 302.984375 208.746094 302.996094 209.207031 303.101562 C 209.667969 303.203125 210.09375 303.390625 210.480469 303.65625 C 210.871094 303.925781 211.195312 304.257812 211.453125 304.652344 C 211.714844 305.046875 211.894531 305.472656 211.988281 305.9375 C 212.066406 306.402344 212.054688 306.867188 211.953125 307.328125 C 211.851562 307.792969 211.667969 308.21875 211.398438 308.609375 C 211.128906 308.996094 210.796875 309.324219 210.402344 309.582031 C 210.003906 309.839844 209.574219 310.015625 209.109375 310.109375 C 205.253906 310.769531 201.285156 311.257812 197.375 311.546875 Z M 176.890625 311.632812 L 176.574219 311.632812 C 172.636719 311.285156 168.695312 310.742188 164.839844 310.019531 C 164.371094 309.933594 163.9375 309.757812 163.539062 309.496094 C 163.140625 309.234375 162.804688 308.910156 162.539062 308.515625 C 162.269531 308.121094 162.085938 307.691406 161.988281 307.226562 C 161.890625 306.757812 161.882812 306.292969 161.972656 305.824219 C 162.058594 305.355469 162.234375 304.921875 162.492188 304.519531 C 162.753906 304.121094 163.078125 303.785156 163.472656 303.515625 C 163.863281 303.246094 164.292969 303.0625 164.761719 302.964844 C 165.226562 302.863281 165.695312 302.859375 166.164062 302.945312 C 169.820312 303.640625 173.5 304.152344 177.207031 304.46875 C 177.6875 304.492188 178.140625 304.601562 178.574219 304.804688 C 179.003906 305.003906 179.382812 305.28125 179.703125 305.632812 C 180.027344 305.988281 180.269531 306.386719 180.433594 306.835938 C 180.597656 307.285156 180.667969 307.746094 180.644531 308.222656 C 180.625 308.699219 180.515625 309.15625 180.3125 309.585938 C 180.109375 310.019531 179.832031 310.398438 179.480469 310.71875 C 179.128906 311.042969 178.730469 311.285156 178.28125 311.449219 C 177.832031 311.609375 177.371094 311.683594 176.890625 311.660156 Z M 227.894531 305.132812 C 227.46875 305.132812 227.054688 305.0625 226.65625 304.917969 C 226.253906 304.773438 225.890625 304.566406 225.566406 304.292969 C 225.238281 304.019531 224.96875 303.699219 224.757812 303.328125 C 224.542969 302.960938 224.402344 302.566406 224.328125 302.148438 C 224.257812 301.726562 224.257812 301.308594 224.335938 300.890625 C 224.410156 300.472656 224.558594 300.078125 224.773438 299.710938 C 224.988281 299.34375 225.261719 299.027344 225.589844 298.757812 C 225.917969 298.488281 226.285156 298.28125 226.6875 298.140625 C 230.195312 296.902344 233.675781 295.496094 237.011719 293.941406 C 237.445312 293.738281 237.902344 293.628906 238.378906 293.605469 C 238.855469 293.585938 239.320312 293.65625 239.769531 293.820312 C 240.21875 293.980469 240.617188 294.226562 240.972656 294.546875 C 241.324219 294.871094 241.601562 295.25 241.800781 295.679688 C 242.003906 296.113281 242.117188 296.570312 242.136719 297.046875 C 242.160156 297.523438 242.085938 297.988281 241.925781 298.4375 C 241.761719 298.886719 241.519531 299.285156 241.195312 299.640625 C 240.875 299.992188 240.496094 300.269531 240.0625 300.472656 C 236.496094 302.109375 232.8125 303.636719 229.101562 304.929688 C 228.710938 305.066406 228.308594 305.132812 227.894531 305.132812 Z M 146.113281 304.613281 C 145.6875 304.613281 145.277344 304.546875 144.875 304.410156 C 141.164062 303.03125 137.511719 301.535156 133.972656 299.78125 C 133.746094 299.6875 133.53125 299.574219 133.328125 299.4375 C 133.125 299.300781 132.9375 299.144531 132.769531 298.96875 C 132.597656 298.792969 132.445312 298.601562 132.3125 298.394531 C 132.179688 298.191406 132.070312 297.972656 131.980469 297.742188 C 131.894531 297.515625 131.832031 297.28125 131.789062 297.039062 C 131.75 296.796875 131.734375 296.554688 131.746094 296.308594 C 131.753906 296.066406 131.789062 295.824219 131.847656 295.585938 C 131.910156 295.347656 131.992188 295.117188 132.097656 294.898438 C 132.203125 294.675781 132.332031 294.46875 132.480469 294.273438 C 132.628906 294.078125 132.792969 293.902344 132.976562 293.742188 C 133.164062 293.582031 133.363281 293.441406 133.574219 293.320312 C 133.789062 293.199219 134.011719 293.101562 134.246094 293.027344 C 134.480469 292.953125 134.71875 292.902344 134.960938 292.878906 C 135.203125 292.851562 135.449219 292.851562 135.691406 292.875 C 135.9375 292.898438 136.175781 292.949219 136.410156 293.019531 C 136.640625 293.09375 136.867188 293.191406 137.082031 293.308594 C 140.417969 294.917969 143.867188 296.355469 147.378906 297.652344 C 147.773438 297.800781 148.128906 298.011719 148.449219 298.285156 C 148.769531 298.558594 149.035156 298.878906 149.242188 299.246094 C 149.449219 299.609375 149.585938 300 149.65625 300.417969 C 149.726562 300.832031 149.726562 301.246094 149.652344 301.660156 C 149.574219 302.074219 149.429688 302.464844 149.21875 302.828125 C 149.007812 303.191406 148.738281 303.507812 148.417969 303.777344 C 148.09375 304.046875 147.734375 304.253906 147.339844 304.398438 C 146.941406 304.542969 146.535156 304.613281 146.113281 304.613281 Z M 256 290.835938 C 255.613281 290.835938 255.242188 290.777344 254.875 290.65625 C 254.511719 290.535156 254.171875 290.363281 253.863281 290.136719 C 253.554688 289.910156 253.289062 289.640625 253.066406 289.328125 C 252.84375 289.015625 252.675781 288.675781 252.558594 288.308594 C 252.445312 287.941406 252.390625 287.566406 252.398438 287.183594 C 252.40625 286.796875 252.46875 286.425781 252.597656 286.0625 C 252.722656 285.699219 252.898438 285.367188 253.132812 285.058594 C 253.367188 284.753906 253.640625 284.492188 253.957031 284.277344 C 257.035156 282.175781 260 279.921875 262.84375 277.515625 C 263.210938 277.222656 263.621094 277.011719 264.074219 276.878906 C 264.523438 276.75 264.980469 276.707031 265.449219 276.753906 C 265.914062 276.804688 266.355469 276.9375 266.769531 277.160156 C 267.183594 277.378906 267.542969 277.671875 267.84375 278.03125 C 268.144531 278.390625 268.363281 278.796875 268.507812 279.242188 C 268.648438 279.691406 268.703125 280.148438 268.664062 280.613281 C 268.628906 281.082031 268.503906 281.527344 268.292969 281.945312 C 268.082031 282.367188 267.800781 282.730469 267.449219 283.039062 C 264.570312 285.542969 261.292969 287.957031 258.042969 290.203125 C 257.425781 290.621094 256.746094 290.832031 256 290.835938 Z M 279.441406 269.71875 C 278.558594 269.726562 277.78125 269.4375 277.113281 268.855469 C 276.757812 268.542969 276.476562 268.171875 276.265625 267.742188 C 276.058594 267.316406 275.9375 266.867188 275.910156 266.390625 C 275.878906 265.917969 275.941406 265.453125 276.09375 265.003906 C 276.25 264.554688 276.484375 264.152344 276.796875 263.792969 C 279.210938 260.917969 281.515625 258.042969 283.644531 254.992188 C 283.917969 254.601562 284.257812 254.277344 284.660156 254.019531 C 285.0625 253.765625 285.5 253.597656 285.972656 253.515625 C 286.441406 253.429688 286.910156 253.441406 287.375 253.546875 C 287.84375 253.652344 288.269531 253.839844 288.664062 254.113281 C 289.054688 254.390625 289.378906 254.726562 289.632812 255.132812 C 289.890625 255.535156 290.058594 255.972656 290.140625 256.441406 C 290.222656 256.914062 290.210938 257.382812 290.109375 257.847656 C 290.003906 258.316406 289.8125 258.742188 289.539062 259.132812 C 287.265625 262.355469 284.820312 265.492188 282.261719 268.484375 C 281.910156 268.894531 281.488281 269.207031 280.992188 269.425781 C 280.5 269.640625 279.984375 269.738281 279.441406 269.71875 Z M 296.703125 243.285156 C 296.15625 243.296875 295.636719 243.183594 295.148438 242.9375 C 294.730469 242.734375 294.363281 242.460938 294.050781 242.117188 C 293.738281 241.773438 293.5 241.378906 293.339844 240.941406 C 293.179688 240.507812 293.105469 240.054688 293.121094 239.589844 C 293.132812 239.121094 293.234375 238.675781 293.421875 238.25 C 295.035156 234.941406 296.472656 231.488281 297.765625 227.980469 C 297.929688 227.53125 298.171875 227.132812 298.492188 226.78125 C 298.816406 226.429688 299.191406 226.15625 299.625 225.957031 C 300.054688 225.757812 300.511719 225.648438 300.984375 225.628906 C 301.460938 225.609375 301.921875 225.683594 302.371094 225.851562 C 302.816406 226.015625 303.21875 226.257812 303.570312 226.578125 C 303.921875 226.898438 304.199219 227.273438 304.402344 227.707031 C 304.601562 228.136719 304.714844 228.59375 304.738281 229.066406 C 304.757812 229.542969 304.6875 230.007812 304.527344 230.453125 C 303.144531 234.164062 301.648438 237.847656 299.925781 241.355469 C 299.605469 241.957031 299.15625 242.429688 298.570312 242.777344 C 297.984375 243.125 297.351562 243.292969 296.671875 243.285156 Z M 306.425781 213.308594 L 305.765625 213.308594 C 305.296875 213.21875 304.863281 213.042969 304.464844 212.78125 C 304.066406 212.519531 303.734375 212.191406 303.464844 211.800781 C 303.195312 211.40625 303.011719 210.976562 302.910156 210.511719 C 302.8125 210.046875 302.804688 209.578125 302.886719 209.109375 C 303.546875 205.484375 304.066406 201.746094 304.382812 198.0625 C 304.417969 197.582031 304.542969 197.128906 304.761719 196.699219 C 304.980469 196.269531 305.273438 195.898438 305.640625 195.585938 C 306.003906 195.273438 306.417969 195.046875 306.878906 194.898438 C 307.335938 194.753906 307.804688 194.699219 308.285156 194.742188 C 308.765625 194.785156 309.21875 194.917969 309.644531 195.144531 C 310.070312 195.367188 310.4375 195.664062 310.742188 196.039062 C 311.050781 196.410156 311.273438 196.824219 311.410156 197.285156 C 311.550781 197.746094 311.59375 198.21875 311.546875 198.695312 C 311.199219 202.609375 310.683594 206.550781 309.964844 210.40625 C 309.882812 210.816406 309.734375 211.199219 309.523438 211.558594 C 309.308594 211.917969 309.039062 212.226562 308.714844 212.492188 C 308.394531 212.757812 308.035156 212.960938 307.640625 213.101562 C 307.25 213.242188 306.84375 213.3125 306.425781 213.308594 Z M 308.066406 181.8125 C 307.609375 181.8125 307.171875 181.730469 306.75 181.5625 C 306.328125 181.398438 305.953125 181.160156 305.621094 180.847656 C 305.289062 180.539062 305.027344 180.179688 304.832031 179.769531 C 304.640625 179.359375 304.527344 178.925781 304.5 178.472656 C 304.210938 174.792969 303.722656 171.054688 303.089844 167.429688 C 303.027344 167.1875 302.992188 166.941406 302.984375 166.691406 C 302.972656 166.441406 302.988281 166.191406 303.03125 165.945312 C 303.074219 165.699219 303.140625 165.457031 303.234375 165.226562 C 303.324219 164.992188 303.441406 164.773438 303.578125 164.5625 C 303.71875 164.355469 303.875 164.164062 304.054688 163.988281 C 304.230469 163.8125 304.425781 163.65625 304.636719 163.523438 C 304.847656 163.386719 305.070312 163.277344 305.304688 163.1875 C 305.539062 163.097656 305.78125 163.035156 306.027344 162.996094 C 306.273438 162.960938 306.523438 162.949219 306.773438 162.960938 C 307.023438 162.976562 307.269531 163.015625 307.507812 163.078125 C 307.75 163.144531 307.984375 163.234375 308.207031 163.347656 C 308.429688 163.460938 308.636719 163.59375 308.832031 163.753906 C 309.027344 163.910156 309.203125 164.085938 309.363281 164.277344 C 309.519531 164.472656 309.65625 164.679688 309.773438 164.902344 C 309.886719 165.125 309.976562 165.359375 310.042969 165.597656 C 310.109375 165.839844 310.148438 166.085938 310.164062 166.335938 C 310.855469 170.191406 311.34375 174.132812 311.660156 178.070312 C 311.679688 178.527344 311.609375 178.972656 311.457031 179.402344 C 311.308594 179.832031 311.082031 180.21875 310.78125 180.5625 C 310.484375 180.90625 310.132812 181.1875 309.726562 181.394531 C 309.320312 181.605469 308.894531 181.734375 308.4375 181.78125 Z M 301.535156 150.945312 C 301.164062 150.945312 300.800781 150.886719 300.449219 150.773438 C 300.09375 150.664062 299.765625 150.5 299.460938 150.285156 C 299.160156 150.070312 298.894531 149.816406 298.667969 149.523438 C 298.445312 149.230469 298.265625 148.90625 298.140625 148.558594 C 296.957031 145.046875 295.59375 141.601562 294.054688 138.230469 C 293.855469 137.796875 293.742188 137.34375 293.722656 136.867188 C 293.699219 136.386719 293.769531 135.925781 293.933594 135.476562 C 294.097656 135.027344 294.339844 134.625 294.664062 134.273438 C 294.984375 133.921875 295.363281 133.644531 295.796875 133.441406 C 296.230469 133.238281 296.683594 133.128906 297.160156 133.105469 C 297.640625 133.085938 298.101562 133.15625 298.550781 133.320312 C 299 133.484375 299.402344 133.726562 299.753906 134.046875 C 300.105469 134.371094 300.382812 134.75 300.585938 135.183594 C 302.253906 138.75 303.75 142.429688 305.074219 146.140625 C 305.230469 146.59375 305.296875 147.054688 305.269531 147.53125 C 305.246094 148.007812 305.128906 148.460938 304.925781 148.890625 C 304.722656 149.324219 304.441406 149.699219 304.089844 150.019531 C 303.734375 150.339844 303.335938 150.582031 302.886719 150.746094 C 302.449219 150.898438 302 150.96875 301.535156 150.945312 Z M 287.152344 122.839844 C 286.574219 122.828125 286.035156 122.683594 285.527344 122.410156 C 285.019531 122.136719 284.601562 121.761719 284.277344 121.289062 C 282.175781 118.238281 279.902344 115.246094 277.515625 112.398438 C 277.222656 112.03125 277.011719 111.621094 276.878906 111.171875 C 276.75 110.722656 276.707031 110.261719 276.753906 109.796875 C 276.804688 109.328125 276.9375 108.886719 277.160156 108.472656 C 277.378906 108.058594 277.667969 107.703125 278.03125 107.402344 C 278.390625 107.101562 278.796875 106.878906 279.242188 106.738281 C 279.6875 106.59375 280.148438 106.542969 280.613281 106.578125 C 281.082031 106.617188 281.527344 106.742188 281.945312 106.949219 C 282.367188 107.160156 282.730469 107.445312 283.039062 107.796875 C 285.570312 110.816406 287.988281 113.980469 290.203125 117.203125 C 290.472656 117.597656 290.660156 118.027344 290.757812 118.492188 C 290.859375 118.960938 290.867188 119.425781 290.777344 119.898438 C 290.691406 120.367188 290.519531 120.800781 290.261719 121.203125 C 290 121.601562 289.675781 121.9375 289.28125 122.207031 C 288.648438 122.644531 287.949219 122.855469 287.179688 122.839844 Z M 287.152344 122.839844 " fill-opacity="1" fill-rule="nonzero"/></g><g clip-path="url(#879fa81fe1)"><path fill="#3c6a98" d="M 84.640625 254.128906 C 84.011719 254.125 83.425781 253.96875 82.878906 253.664062 C 82.332031 253.355469 81.894531 252.9375 81.5625 252.402344 C 79.519531 249.039062 77.59375 245.558594 75.808594 242.019531 C 75.605469 241.585938 75.488281 241.132812 75.460938 240.65625 C 75.4375 240.179688 75.5 239.714844 75.65625 239.261719 C 75.8125 238.808594 76.046875 238.40625 76.363281 238.046875 C 76.679688 237.6875 77.050781 237.398438 77.476562 237.1875 C 77.90625 236.976562 78.359375 236.859375 78.835938 236.832031 C 79.3125 236.804688 79.773438 236.867188 80.226562 237.023438 C 80.675781 237.179688 81.078125 237.417969 81.433594 237.734375 C 81.792969 238.050781 82.074219 238.425781 82.28125 238.855469 C 83.910156 242.203125 85.703125 245.464844 87.660156 248.632812 C 87.910156 249.042969 88.070312 249.484375 88.144531 249.953125 C 88.214844 250.425781 88.195312 250.894531 88.082031 251.359375 C 87.96875 251.824219 87.773438 252.25 87.488281 252.632812 C 87.207031 253.019531 86.859375 253.335938 86.453125 253.582031 C 85.898438 253.9375 85.296875 254.117188 84.640625 254.128906 Z M 71.867188 225.363281 C 71.480469 225.363281 71.101562 225.300781 70.730469 225.179688 C 70.363281 225.054688 70.023438 224.878906 69.710938 224.644531 C 69.398438 224.410156 69.132812 224.132812 68.910156 223.8125 C 68.691406 223.496094 68.523438 223.148438 68.417969 222.773438 C 67.292969 219.003906 66.375 215.121094 65.539062 211.269531 C 65.488281 210.820312 65.519531 210.378906 65.632812 209.945312 C 65.746094 209.507812 65.933594 209.109375 66.199219 208.742188 C 66.460938 208.378906 66.78125 208.074219 67.160156 207.832031 C 67.539062 207.585938 67.949219 207.417969 68.390625 207.328125 C 68.832031 207.238281 69.273438 207.230469 69.714844 207.308594 C 70.160156 207.382812 70.574219 207.535156 70.960938 207.769531 C 71.347656 208 71.675781 208.292969 71.953125 208.648438 C 72.230469 209.003906 72.429688 209.398438 72.558594 209.828125 C 73.277344 213.453125 74.140625 217.105469 75.203125 220.675781 C 75.335938 221.132812 75.371094 221.597656 75.320312 222.070312 C 75.265625 222.542969 75.125 222.988281 74.894531 223.402344 C 74.667969 223.820312 74.367188 224.179688 73.996094 224.480469 C 73.628906 224.777344 73.214844 224.996094 72.757812 225.132812 C 72.46875 225.210938 72.171875 225.261719 71.867188 225.277344 Z M 67.035156 194.09375 C 66.566406 194.09375 66.113281 194.007812 65.679688 193.828125 C 65.242188 193.652344 64.859375 193.398438 64.523438 193.070312 C 64.1875 192.742188 63.925781 192.363281 63.738281 191.933594 C 63.550781 191.503906 63.449219 191.054688 63.441406 190.585938 C 63.441406 189.605469 63.441406 188.628906 63.441406 187.707031 C 63.441406 184.832031 63.441406 181.753906 63.757812 178.789062 C 63.792969 178.316406 63.917969 177.871094 64.132812 177.445312 C 64.34375 177.019531 64.628906 176.652344 64.988281 176.339844 C 65.34375 176.027344 65.75 175.796875 66.199219 175.644531 C 66.648438 175.488281 67.109375 175.425781 67.582031 175.453125 C 68.054688 175.488281 68.507812 175.609375 68.933594 175.820312 C 69.359375 176.035156 69.726562 176.320312 70.039062 176.675781 C 70.351562 177.035156 70.585938 177.441406 70.738281 177.890625 C 70.890625 178.34375 70.949219 178.804688 70.917969 179.28125 C 70.71875 182.15625 70.632812 185.035156 70.632812 187.707031 C 70.632812 188.601562 70.632812 189.519531 70.632812 190.441406 C 70.644531 190.917969 70.5625 191.378906 70.390625 191.824219 C 70.21875 192.269531 69.96875 192.664062 69.640625 193.007812 C 69.308594 193.355469 68.925781 193.625 68.492188 193.816406 C 68.054688 194.011719 67.597656 194.113281 67.121094 194.125 Z M 70.402344 162.738281 C 70.113281 162.785156 69.824219 162.785156 69.539062 162.738281 C 69.296875 162.6875 69.066406 162.617188 68.839844 162.519531 C 68.617188 162.421875 68.40625 162.300781 68.203125 162.160156 C 68.003906 162.019531 67.820312 161.859375 67.652344 161.679688 C 67.484375 161.5 67.339844 161.308594 67.210938 161.097656 C 67.082031 160.890625 66.976562 160.671875 66.894531 160.441406 C 66.8125 160.210938 66.75 159.972656 66.71875 159.730469 C 66.683594 159.488281 66.671875 159.246094 66.6875 159 C 66.703125 158.757812 66.742188 158.515625 66.804688 158.28125 C 67.726562 154.484375 68.847656 150.65625 70.140625 146.773438 C 70.308594 146.339844 70.554688 145.953125 70.871094 145.613281 C 71.191406 145.273438 71.5625 145.007812 71.984375 144.8125 C 72.40625 144.617188 72.851562 144.507812 73.316406 144.484375 C 73.78125 144.460938 74.234375 144.527344 74.675781 144.679688 C 75.113281 144.832031 75.507812 145.0625 75.859375 145.367188 C 76.210938 145.675781 76.492188 146.035156 76.703125 146.449219 C 76.914062 146.867188 77.039062 147.304688 77.078125 147.769531 C 77.117188 148.234375 77.066406 148.6875 76.929688 149.132812 C 75.722656 152.644531 74.660156 156.238281 73.796875 159.835938 C 73.714844 160.230469 73.574219 160.605469 73.367188 160.953125 C 73.164062 161.300781 72.90625 161.609375 72.597656 161.871094 C 72.292969 162.136719 71.949219 162.339844 71.574219 162.488281 C 71.195312 162.640625 70.804688 162.722656 70.402344 162.738281 Z M 81.90625 133.3125 C 81.296875 133.308594 80.722656 133.164062 80.179688 132.878906 C 79.761719 132.652344 79.398438 132.351562 79.097656 131.980469 C 78.796875 131.609375 78.582031 131.191406 78.445312 130.734375 C 78.3125 130.277344 78.269531 129.808594 78.320312 129.332031 C 78.371094 128.855469 78.511719 128.410156 78.742188 127.992188 C 80.640625 124.539062 82.710938 121.144531 84.925781 117.894531 C 85.195312 117.515625 85.523438 117.199219 85.914062 116.945312 C 86.304688 116.695312 86.726562 116.523438 87.183594 116.433594 C 87.636719 116.347656 88.09375 116.347656 88.550781 116.433594 C 89.003906 116.523438 89.429688 116.691406 89.816406 116.945312 C 90.210938 117.210938 90.539062 117.542969 90.804688 117.9375 C 91.066406 118.335938 91.242188 118.765625 91.328125 119.234375 C 91.417969 119.703125 91.414062 120.167969 91.316406 120.632812 C 91.21875 121.097656 91.035156 121.527344 90.765625 121.921875 C 88.695312 125 86.738281 128.191406 85.015625 131.441406 C 84.691406 132.03125 84.242188 132.492188 83.664062 132.828125 C 83.085938 133.164062 82.460938 133.324219 81.792969 133.3125 Z M 100.546875 107.855469 C 99.589844 107.863281 98.765625 107.535156 98.074219 106.875 C 97.734375 106.539062 97.476562 106.148438 97.292969 105.707031 C 97.109375 105.265625 97.015625 104.808594 97.015625 104.332031 C 97.015625 103.851562 97.109375 103.394531 97.292969 102.953125 C 97.476562 102.511719 97.734375 102.121094 98.074219 101.785156 C 100.777344 98.90625 103.683594 96.203125 106.703125 93.613281 C 107.066406 93.335938 107.46875 93.132812 107.910156 93.007812 C 108.355469 92.882812 108.800781 92.847656 109.257812 92.894531 C 109.714844 92.941406 110.148438 93.070312 110.554688 93.28125 C 110.960938 93.492188 111.3125 93.773438 111.613281 94.121094 C 111.914062 94.46875 112.136719 94.859375 112.289062 95.292969 C 112.4375 95.726562 112.503906 96.171875 112.480469 96.628906 C 112.460938 97.089844 112.355469 97.527344 112.167969 97.945312 C 111.980469 98.363281 111.722656 98.734375 111.390625 99.050781 C 108.515625 101.496094 105.871094 104.085938 103.308594 106.761719 C 102.9375 107.148438 102.496094 107.441406 101.992188 107.632812 C 101.488281 107.824219 100.96875 107.898438 100.433594 107.855469 Z M 125.113281 88.09375 C 124.488281 88.097656 123.902344 87.945312 123.359375 87.636719 C 122.8125 87.328125 122.382812 86.90625 122.066406 86.367188 C 121.816406 85.960938 121.652344 85.519531 121.578125 85.050781 C 121.5 84.578125 121.519531 84.113281 121.628906 83.648438 C 121.738281 83.183594 121.933594 82.757812 122.214844 82.371094 C 122.496094 81.984375 122.835938 81.667969 123.242188 81.417969 C 126.609375 79.375 130.117188 77.476562 133.65625 75.664062 C 134.085938 75.457031 134.539062 75.339844 135.015625 75.3125 C 135.492188 75.28125 135.953125 75.347656 136.40625 75.503906 C 136.855469 75.660156 137.261719 75.894531 137.617188 76.214844 C 137.972656 76.53125 138.253906 76.902344 138.464844 77.332031 C 138.671875 77.761719 138.789062 78.214844 138.816406 78.691406 C 138.84375 79.167969 138.78125 79.628906 138.625 80.082031 C 138.464844 80.53125 138.230469 80.933594 137.914062 81.292969 C 137.59375 81.648438 137.222656 81.929688 136.792969 82.136719 C 133.457031 83.75 130.175781 85.53125 126.984375 87.488281 C 126.382812 87.886719 125.722656 88.089844 125 88.09375 Z M 249.929688 87.71875 C 249.257812 87.710938 248.636719 87.539062 248.058594 87.199219 L 244.203125 84.984375 C 243.988281 84.878906 243.785156 84.75 243.59375 84.601562 C 243.402344 84.453125 243.226562 84.285156 243.070312 84.101562 C 242.914062 83.914062 242.777344 83.71875 242.660156 83.503906 C 242.542969 83.292969 242.449219 83.070312 242.378906 82.839844 C 242.308594 82.609375 242.261719 82.371094 242.238281 82.128906 C 242.214844 81.890625 242.214844 81.648438 242.242188 81.40625 C 242.265625 81.167969 242.316406 80.929688 242.390625 80.699219 C 242.464844 80.46875 242.5625 80.25 242.679688 80.039062 C 242.90625 79.617188 243.203125 79.257812 243.574219 78.957031 C 243.941406 78.65625 244.355469 78.441406 244.8125 78.308594 C 245.273438 78.175781 245.738281 78.136719 246.210938 78.191406 C 246.683594 78.25 247.125 78.394531 247.542969 78.628906 C 248.921875 79.375 250.417969 80.179688 251.65625 80.988281 C 251.992188 81.191406 252.285156 81.441406 252.539062 81.738281 C 252.792969 82.039062 252.992188 82.371094 253.136719 82.734375 C 253.28125 83.097656 253.363281 83.476562 253.386719 83.867188 C 253.40625 84.257812 253.367188 84.644531 253.261719 85.019531 C 253.160156 85.398438 252.996094 85.75 252.777344 86.074219 C 252.558594 86.398438 252.292969 86.683594 251.980469 86.921875 C 251.671875 87.160156 251.328125 87.339844 250.957031 87.46875 C 250.585938 87.59375 250.207031 87.660156 249.8125 87.660156 Z M 227.433594 77.160156 C 227.039062 77.214844 226.648438 77.214844 226.253906 77.160156 C 222.742188 75.921875 219.175781 74.867188 215.554688 73.996094 C 215.089844 73.882812 214.667969 73.6875 214.28125 73.40625 C 213.898438 73.125 213.582031 72.78125 213.332031 72.371094 C 213.085938 71.964844 212.925781 71.527344 212.851562 71.054688 C 212.777344 70.585938 212.796875 70.117188 212.910156 69.652344 C 213.023438 69.191406 213.21875 68.765625 213.5 68.382812 C 213.78125 67.996094 214.125 67.679688 214.53125 67.429688 C 214.9375 67.183594 215.378906 67.023438 215.847656 66.949219 C 216.320312 66.875 216.789062 66.894531 217.25 67.007812 C 221.078125 67.925781 224.902344 69.078125 228.757812 70.371094 C 229.105469 70.550781 229.417969 70.777344 229.691406 71.054688 C 229.964844 71.335938 230.1875 71.648438 230.359375 72 C 230.53125 72.351562 230.644531 72.722656 230.695312 73.109375 C 230.746094 73.496094 230.734375 73.882812 230.660156 74.265625 C 230.582031 74.648438 230.449219 75.011719 230.257812 75.351562 C 230.0625 75.691406 229.820312 75.992188 229.53125 76.253906 C 229.242188 76.515625 228.914062 76.722656 228.558594 76.878906 C 228.199219 77.035156 227.824219 77.128906 227.433594 77.160156 Z M 153.851562 75.347656 C 153.417969 75.347656 153 75.273438 152.59375 75.121094 C 152.1875 74.96875 151.820312 74.753906 151.496094 74.46875 C 151.167969 74.1875 150.902344 73.855469 150.695312 73.472656 C 150.488281 73.09375 150.351562 72.691406 150.292969 72.261719 C 150.230469 71.832031 150.246094 71.40625 150.339844 70.984375 C 150.429688 70.5625 150.59375 70.167969 150.828125 69.804688 C 151.0625 69.441406 151.355469 69.128906 151.699219 68.871094 C 152.046875 68.613281 152.429688 68.421875 152.84375 68.300781 C 156.640625 67.207031 160.523438 66.289062 164.351562 65.425781 C 164.820312 65.335938 165.289062 65.34375 165.753906 65.441406 C 166.222656 65.539062 166.652344 65.722656 167.046875 65.992188 C 167.441406 66.261719 167.765625 66.597656 168.027344 66.996094 C 168.289062 67.398438 168.460938 67.832031 168.550781 68.300781 C 168.636719 68.769531 168.632812 69.238281 168.535156 69.707031 C 168.4375 70.171875 168.25 70.601562 167.980469 70.996094 C 167.710938 71.390625 167.378906 71.71875 166.976562 71.976562 C 166.578125 72.238281 166.144531 72.414062 165.671875 72.5 C 162.050781 73.191406 158.394531 74.054688 154.859375 75.089844 C 154.535156 75.230469 154.199219 75.316406 153.851562 75.347656 Z M 196.539062 70.859375 L 196.25 70.859375 C 192.570312 70.601562 188.800781 70.488281 185.089844 70.574219 C 184.613281 70.574219 184.15625 70.480469 183.714844 70.300781 C 183.273438 70.117188 182.886719 69.859375 182.546875 69.519531 C 182.210938 69.183594 181.949219 68.792969 181.769531 68.355469 C 181.585938 67.914062 181.496094 67.453125 181.496094 66.976562 C 181.496094 66.5 181.585938 66.042969 181.769531 65.601562 C 181.949219 65.160156 182.210938 64.773438 182.546875 64.433594 C 182.886719 64.097656 183.273438 63.839844 183.714844 63.65625 C 184.15625 63.472656 184.613281 63.382812 185.089844 63.382812 C 189.003906 63.382812 193 63.382812 196.914062 63.667969 C 197.390625 63.6875 197.84375 63.792969 198.28125 63.992188 C 198.714844 64.191406 199.09375 64.464844 199.417969 64.8125 C 199.742188 65.164062 199.988281 65.5625 200.15625 66.007812 C 200.320312 66.457031 200.398438 66.917969 200.378906 67.394531 C 200.363281 67.871094 200.253906 68.328125 200.054688 68.761719 C 199.859375 69.195312 199.585938 69.574219 199.234375 69.898438 C 198.886719 70.226562 198.488281 70.46875 198.039062 70.636719 C 197.59375 70.804688 197.132812 70.878906 196.65625 70.859375 Z M 196.539062 70.859375 " fill-opacity="1" fill-rule="nonzero"/></g><path fill="#fdd04c" d="M 106.644531 298.859375 C 105.917969 298.859375 105.195312 298.824219 104.472656 298.753906 C 103.75 298.683594 103.03125 298.574219 102.320312 298.433594 C 101.605469 298.292969 100.902344 298.117188 100.207031 297.90625 C 99.511719 297.695312 98.828125 297.449219 98.160156 297.171875 C 97.488281 296.894531 96.832031 296.582031 96.191406 296.242188 C 95.550781 295.898438 94.929688 295.527344 94.324219 295.121094 C 93.71875 294.71875 93.136719 294.285156 92.574219 293.824219 C 92.015625 293.363281 91.476562 292.878906 90.964844 292.363281 C 90.449219 291.851562 89.960938 291.3125 89.5 290.75 C 89.039062 290.191406 88.609375 289.605469 88.207031 289.003906 C 87.800781 288.398438 87.429688 287.777344 87.085938 287.136719 C 86.742188 286.496094 86.433594 285.839844 86.15625 285.167969 C 85.878906 284.496094 85.632812 283.816406 85.421875 283.121094 C 85.210938 282.425781 85.035156 281.71875 84.894531 281.007812 C 84.75 280.296875 84.644531 279.578125 84.574219 278.855469 C 84.503906 278.132812 84.46875 277.40625 84.46875 276.679688 C 84.46875 275.953125 84.503906 275.230469 84.574219 274.507812 C 84.644531 273.785156 84.75 273.066406 84.894531 272.355469 C 85.035156 271.640625 85.210938 270.9375 85.421875 270.242188 C 85.632812 269.546875 85.878906 268.863281 86.15625 268.195312 C 86.433594 267.523438 86.742188 266.867188 87.085938 266.226562 C 87.429688 265.585938 87.800781 264.964844 88.207031 264.359375 C 88.609375 263.753906 89.039062 263.171875 89.5 262.613281 C 89.960938 262.050781 90.449219 261.511719 90.964844 261 C 91.476562 260.484375 92.015625 259.996094 92.574219 259.539062 C 93.136719 259.078125 93.71875 258.644531 94.324219 258.242188 C 94.929688 257.835938 95.550781 257.464844 96.191406 257.121094 C 96.832031 256.78125 97.488281 256.46875 98.160156 256.191406 C 98.828125 255.914062 99.511719 255.667969 100.207031 255.457031 C 100.902344 255.246094 101.605469 255.070312 102.320312 254.929688 C 103.03125 254.789062 103.75 254.679688 104.472656 254.609375 C 105.195312 254.539062 105.917969 254.503906 106.644531 254.503906 C 107.371094 254.503906 108.097656 254.539062 108.820312 254.609375 C 109.542969 254.679688 110.261719 254.789062 110.972656 254.929688 C 111.683594 255.070312 112.390625 255.246094 113.085938 255.457031 C 113.777344 255.667969 114.460938 255.914062 115.132812 256.191406 C 115.804688 256.46875 116.460938 256.78125 117.101562 257.121094 C 117.742188 257.464844 118.363281 257.835938 118.96875 258.242188 C 119.570312 258.644531 120.15625 259.078125 120.714844 259.539062 C 121.277344 259.996094 121.816406 260.484375 122.328125 261 C 122.84375 261.511719 123.328125 262.050781 123.789062 262.613281 C 124.25 263.171875 124.683594 263.753906 125.085938 264.359375 C 125.492188 264.964844 125.863281 265.585938 126.207031 266.226562 C 126.546875 266.867188 126.859375 267.523438 127.136719 268.195312 C 127.414062 268.863281 127.660156 269.546875 127.871094 270.242188 C 128.082031 270.9375 128.257812 271.640625 128.398438 272.355469 C 128.539062 273.066406 128.648438 273.785156 128.71875 274.507812 C 128.789062 275.230469 128.824219 275.953125 128.824219 276.679688 C 128.824219 277.40625 128.789062 278.132812 128.714844 278.855469 C 128.644531 279.578125 128.535156 280.292969 128.394531 281.007812 C 128.25 281.71875 128.074219 282.421875 127.863281 283.117188 C 127.652344 283.8125 127.40625 284.492188 127.128906 285.164062 C 126.851562 285.835938 126.539062 286.492188 126.195312 287.128906 C 125.855469 287.769531 125.480469 288.394531 125.078125 288.996094 C 124.675781 289.601562 124.242188 290.183594 123.78125 290.742188 C 123.320312 291.304688 122.832031 291.84375 122.320312 292.355469 C 121.808594 292.867188 121.269531 293.355469 120.707031 293.816406 C 120.148438 294.277344 119.566406 294.710938 118.960938 295.113281 C 118.355469 295.515625 117.734375 295.890625 117.09375 296.234375 C 116.453125 296.574219 115.800781 296.886719 115.128906 297.164062 C 114.457031 297.441406 113.777344 297.6875 113.082031 297.898438 C 112.386719 298.109375 111.683594 298.285156 110.972656 298.429688 C 110.257812 298.570312 109.542969 298.679688 108.820312 298.75 C 108.097656 298.824219 107.371094 298.859375 106.644531 298.859375 Z M 106.644531 298.859375 " fill-opacity="1" fill-rule="nonzero"/><path fill="#ff6d55" d="M 265.578125 107.539062 C 264.800781 107.539062 264.027344 107.460938 263.265625 107.308594 C 262.503906 107.160156 261.761719 106.933594 261.042969 106.636719 C 260.324219 106.335938 259.640625 105.972656 258.992188 105.539062 C 258.347656 105.109375 257.746094 104.617188 257.199219 104.066406 C 256.648438 103.515625 256.15625 102.917969 255.722656 102.269531 C 255.292969 101.625 254.925781 100.941406 254.628906 100.222656 C 254.332031 99.503906 254.105469 98.761719 253.953125 98 C 253.800781 97.234375 253.726562 96.464844 253.726562 95.6875 C 253.726562 94.90625 253.800781 94.136719 253.953125 93.375 C 254.105469 92.609375 254.332031 91.871094 254.628906 91.152344 C 254.925781 90.433594 255.292969 89.75 255.722656 89.101562 C 256.15625 88.453125 256.648438 87.855469 257.199219 87.304688 C 257.746094 86.753906 258.347656 86.265625 258.992188 85.832031 C 259.640625 85.398438 260.324219 85.035156 261.042969 84.738281 C 261.761719 84.4375 262.503906 84.214844 263.265625 84.0625 C 264.027344 83.910156 264.800781 83.835938 265.578125 83.835938 C 266.355469 83.835938 267.125 83.910156 267.890625 84.0625 C 268.652344 84.214844 269.394531 84.4375 270.113281 84.738281 C 270.832031 85.035156 271.515625 85.398438 272.160156 85.832031 C 272.808594 86.265625 273.40625 86.753906 273.957031 87.304688 C 274.507812 87.855469 275 88.453125 275.433594 89.101562 C 275.863281 89.75 276.230469 90.433594 276.527344 91.152344 C 276.824219 91.871094 277.050781 92.609375 277.203125 93.375 C 277.351562 94.136719 277.429688 94.90625 277.429688 95.6875 C 277.425781 96.464844 277.351562 97.234375 277.195312 97.996094 C 277.042969 98.757812 276.816406 99.5 276.519531 100.21875 C 276.222656 100.933594 275.855469 101.617188 275.421875 102.265625 C 274.992188 102.910156 274.5 103.507812 273.949219 104.058594 C 273.398438 104.609375 272.800781 105.097656 272.15625 105.53125 C 271.507812 105.964844 270.828125 106.328125 270.109375 106.628906 C 269.390625 106.925781 268.648438 107.152344 267.886719 107.304688 C 267.125 107.457031 266.355469 107.535156 265.578125 107.539062 Z M 265.578125 107.539062 " fill-opacity="1" fill-rule="nonzero"/><path fill="#4c91d4" d="M 147.148438 224.15625 C 159.414062 222.484375 171.734375 221.59375 184.113281 221.480469 L 184.113281 191.277344 L 142.316406 191.277344 C 142.550781 202.4375 144.164062 213.398438 147.148438 224.15625 Z M 147.148438 224.15625 " fill-opacity="1" fill-rule="nonzero"/><path fill="#4c91d4" d="M 149.363281 144.242188 C 160.898438 145.75 172.480469 146.554688 184.113281 146.660156 L 184.113281 106.789062 C 169.5 108.804688 156.8125 123.1875 149.363281 144.242188 Z M 149.363281 144.242188 " fill-opacity="1" fill-rule="nonzero"/><path fill="#4c91d4" d="M 184.113281 268.570312 L 184.113281 228.671875 C 172.480469 228.789062 160.898438 229.59375 149.363281 231.085938 C 156.8125 252.058594 169.5 266.5 184.113281 268.570312 Z M 184.113281 268.570312 " fill-opacity="1" fill-rule="nonzero"/><path fill="#4c91d4" d="M 135.125 191.277344 L 106.644531 191.277344 C 106.941406 198.097656 108.082031 204.777344 110.074219 211.3125 C 112.066406 217.84375 114.847656 224.023438 118.410156 229.851562 C 125.285156 228.007812 132.535156 226.457031 140.070312 225.191406 C 137.011719 214.089844 135.363281 202.785156 135.125 191.277344 Z M 135.125 191.277344 " fill-opacity="1" fill-rule="nonzero"/><path fill="#4c91d4" d="M 140.070312 150.140625 C 132.535156 148.902344 125.285156 147.261719 118.410156 145.480469 C 114.84375 151.3125 112.0625 157.496094 110.070312 164.03125 C 108.078125 170.570312 106.9375 177.253906 106.644531 184.082031 L 135.125 184.082031 C 135.363281 172.5625 137.011719 161.25 140.070312 150.140625 Z M 140.070312 150.140625 " fill-opacity="1" fill-rule="nonzero"/><path fill="#4c91d4" d="M 161.875 110.757812 C 157.988281 112.066406 154.222656 113.660156 150.574219 115.539062 C 146.929688 117.417969 143.445312 119.5625 140.125 121.96875 C 136.800781 124.375 133.679688 127.019531 130.757812 129.902344 C 127.839844 132.78125 125.152344 135.863281 122.699219 139.152344 C 128.949219 140.761719 135.46875 142.113281 142.257812 143.207031 C 144.210938 137.105469 146.84375 131.3125 150.160156 125.832031 C 153.476562 120.347656 157.378906 115.324219 161.875 110.757812 Z M 161.875 110.757812 " fill-opacity="1" fill-rule="nonzero"/><path fill="#4c91d4" d="M 122.667969 236.179688 C 125.128906 239.464844 127.820312 242.550781 130.746094 245.429688 C 133.667969 248.308594 136.792969 250.953125 140.117188 253.363281 C 143.441406 255.773438 146.925781 257.917969 150.574219 259.800781 C 154.21875 261.683594 157.988281 263.285156 161.875 264.601562 C 157.378906 260.03125 153.476562 255 150.160156 249.511719 C 146.84375 244.027344 144.210938 238.230469 142.257812 232.121094 C 135.46875 233.214844 128.941406 234.597656 122.667969 236.179688 Z M 122.667969 236.179688 " fill-opacity="1" fill-rule="nonzero"/><path fill="#4c91d4" d="M 240.265625 184.082031 L 268.800781 184.082031 C 268.503906 177.253906 267.359375 170.574219 265.367188 164.035156 C 263.375 157.496094 260.597656 151.3125 257.035156 145.480469 C 250.128906 147.320312 242.882812 148.902344 235.316406 150.140625 C 238.375 161.25 240.027344 172.5625 240.265625 184.082031 Z M 240.265625 184.082031 " fill-opacity="1" fill-rule="nonzero"/><path fill="#4c91d4" d="M 142.316406 184.082031 L 184.113281 184.082031 L 184.113281 153.851562 C 171.734375 153.734375 159.414062 152.84375 147.148438 151.175781 C 144.160156 161.941406 142.550781 172.914062 142.316406 184.082031 Z M 142.316406 184.082031 " fill-opacity="1" fill-rule="nonzero"/><path fill="#4c91d4" d="M 240.265625 191.277344 C 240.039062 202.789062 238.390625 214.09375 235.316406 225.191406 C 242.871094 226.457031 250.109375 228.007812 257.035156 229.851562 C 260.59375 224.023438 263.371094 217.84375 265.363281 211.308594 C 267.355469 204.777344 268.503906 198.097656 268.800781 191.277344 Z M 240.265625 191.277344 " fill-opacity="1" fill-rule="nonzero"/><path fill="#4c91d4" d="M 191.304688 228.671875 L 191.304688 268.539062 C 205.917969 266.5 218.601562 252.058594 226.054688 231.144531 C 214.519531 229.632812 202.9375 228.808594 191.304688 228.671875 Z M 191.304688 228.671875 " fill-opacity="1" fill-rule="nonzero"/><path fill="#4c91d4" d="M 213.511719 264.601562 C 217.402344 263.289062 221.171875 261.691406 224.816406 259.808594 C 228.464844 257.925781 231.953125 255.78125 235.277344 253.371094 C 238.601562 250.960938 241.722656 248.316406 244.648438 245.433594 C 247.570312 242.550781 250.261719 239.46875 252.71875 236.179688 C 246.449219 234.597656 239.917969 233.300781 233.128906 232.121094 C 231.175781 238.230469 228.542969 244.027344 225.226562 249.511719 C 221.914062 255 218.007812 260.03125 213.511719 264.601562 Z M 213.511719 264.601562 " fill-opacity="1" fill-rule="nonzero"/><path fill="#4c91d4" d="M 187.621094 92.121094 C 186.0625 92.121094 184.503906 92.160156 182.949219 92.238281 C 181.390625 92.316406 179.835938 92.433594 178.285156 92.585938 C 176.734375 92.742188 175.1875 92.933594 173.644531 93.164062 C 172.105469 93.394531 170.570312 93.660156 169.039062 93.964844 C 167.511719 94.269531 165.992188 94.613281 164.480469 94.996094 C 162.96875 95.375 161.464844 95.792969 159.976562 96.246094 C 158.484375 96.699219 157.003906 97.1875 155.535156 97.714844 C 154.070312 98.242188 152.617188 98.804688 151.175781 99.402344 C 149.734375 100 148.3125 100.632812 146.902344 101.300781 C 145.496094 101.96875 144.101562 102.667969 142.730469 103.40625 C 141.355469 104.140625 140 104.910156 138.664062 105.714844 C 137.328125 106.515625 136.011719 107.351562 134.714844 108.21875 C 133.417969 109.085938 132.144531 109.984375 130.894531 110.914062 C 129.644531 111.84375 128.414062 112.800781 127.210938 113.792969 C 126.007812 114.78125 124.828125 115.800781 123.671875 116.847656 C 122.519531 117.894531 121.390625 118.972656 120.289062 120.074219 C 119.1875 121.179688 118.113281 122.308594 117.066406 123.464844 C 116.023438 124.621094 115.003906 125.800781 114.015625 127.003906 C 113.027344 128.210938 112.070312 129.441406 111.144531 130.695312 C 110.214844 131.945312 109.320312 133.222656 108.453125 134.519531 C 107.589844 135.816406 106.757812 137.132812 105.957031 138.46875 C 105.15625 139.808594 104.386719 141.164062 103.652344 142.539062 C 102.921875 143.914062 102.21875 145.308594 101.554688 146.71875 C 100.890625 148.125 100.257812 149.550781 99.664062 150.992188 C 99.066406 152.433594 98.507812 153.886719 97.984375 155.355469 C 97.460938 156.824219 96.972656 158.304688 96.519531 159.796875 C 96.066406 161.289062 95.652344 162.789062 95.277344 164.304688 C 94.898438 165.816406 94.558594 167.335938 94.253906 168.863281 C 93.953125 170.394531 93.6875 171.929688 93.457031 173.472656 C 93.230469 175.015625 93.039062 176.5625 92.886719 178.113281 C 92.738281 179.664062 92.625 181.21875 92.546875 182.777344 C 92.472656 184.332031 92.433594 185.890625 92.4375 187.449219 C 92.4375 189.007812 92.476562 190.566406 92.554688 192.125 C 92.628906 193.679688 92.746094 195.234375 92.898438 196.785156 C 93.054688 198.335938 93.246094 199.882812 93.476562 201.425781 C 93.703125 202.96875 93.972656 204.503906 94.277344 206.03125 C 94.582031 207.558594 94.925781 209.082031 95.304688 210.59375 C 95.683594 212.105469 96.101562 213.605469 96.554688 215.097656 C 97.007812 216.589844 97.496094 218.070312 98.023438 219.535156 C 98.546875 221.003906 99.109375 222.457031 99.707031 223.898438 C 100.304688 225.335938 100.9375 226.761719 101.605469 228.171875 C 102.269531 229.578125 102.972656 230.972656 103.707031 232.347656 C 104.445312 233.71875 105.210938 235.074219 106.015625 236.414062 C 106.816406 237.75 107.652344 239.066406 108.519531 240.363281 C 109.382812 241.65625 110.28125 242.929688 111.210938 244.183594 C 112.140625 245.433594 113.101562 246.664062 114.089844 247.867188 C 115.078125 249.070312 116.097656 250.25 117.144531 251.40625 C 118.191406 252.558594 119.269531 253.6875 120.371094 254.789062 C 121.472656 255.890625 122.601562 256.964844 123.757812 258.011719 C 124.914062 259.058594 126.09375 260.078125 127.300781 261.066406 C 128.503906 262.054688 129.734375 263.011719 130.988281 263.941406 C 132.238281 264.867188 133.515625 265.765625 134.8125 266.628906 C 136.105469 267.496094 137.425781 268.328125 138.761719 269.128906 C 140.097656 269.929688 141.457031 270.699219 142.832031 271.433594 C 144.207031 272.167969 145.597656 272.867188 147.007812 273.535156 C 148.417969 274.199219 149.84375 274.832031 151.28125 275.425781 C 152.722656 276.023438 154.175781 276.582031 155.644531 277.105469 C 157.113281 277.632812 158.59375 278.121094 160.085938 278.570312 C 161.578125 279.023438 163.078125 279.4375 164.589844 279.816406 C 166.105469 280.195312 167.625 280.535156 169.152344 280.839844 C 170.683594 281.144531 172.21875 281.410156 173.761719 281.636719 C 175.300781 281.867188 176.847656 282.058594 178.402344 282.207031 C 179.953125 282.359375 181.507812 282.476562 183.0625 282.550781 C 184.621094 282.628906 186.179688 282.664062 187.738281 282.664062 C 189.296875 282.664062 190.855469 282.625 192.410156 282.546875 C 193.96875 282.472656 195.523438 282.355469 197.074219 282.203125 C 198.625 282.050781 200.171875 281.859375 201.714844 281.628906 C 203.253906 281.402344 204.789062 281.132812 206.320312 280.828125 C 207.847656 280.523438 209.371094 280.183594 210.882812 279.804688 C 212.394531 279.425781 213.894531 279.007812 215.386719 278.554688 C 216.878906 278.101562 218.359375 277.613281 219.824219 277.085938 C 221.292969 276.5625 222.746094 276 224.1875 275.402344 C 225.628906 274.808594 227.050781 274.175781 228.460938 273.507812 C 229.871094 272.84375 231.261719 272.140625 232.636719 271.40625 C 234.011719 270.671875 235.367188 269.902344 236.703125 269.101562 C 238.042969 268.296875 239.359375 267.464844 240.652344 266.597656 C 241.949219 265.730469 243.222656 264.835938 244.476562 263.90625 C 245.726562 262.976562 246.957031 262.019531 248.160156 261.027344 C 249.367188 260.039062 250.546875 259.019531 251.699219 257.972656 C 252.855469 256.925781 253.984375 255.851562 255.085938 254.75 C 256.1875 253.648438 257.261719 252.519531 258.308594 251.363281 C 259.355469 250.207031 260.375 249.027344 261.363281 247.824219 C 262.351562 246.617188 263.3125 245.390625 264.238281 244.136719 C 265.167969 242.882812 266.066406 241.609375 266.929688 240.3125 C 267.796875 239.015625 268.628906 237.699219 269.433594 236.363281 C 270.234375 235.027344 271 233.671875 271.734375 232.296875 C 272.46875 230.921875 273.171875 229.527344 273.835938 228.117188 C 274.503906 226.710938 275.136719 225.285156 275.730469 223.84375 C 276.328125 222.40625 276.890625 220.949219 277.414062 219.484375 C 277.9375 218.015625 278.429688 216.535156 278.878906 215.042969 C 279.332031 213.550781 279.75 212.050781 280.128906 210.535156 C 280.503906 209.023438 280.847656 207.503906 281.152344 205.976562 C 281.457031 204.445312 281.722656 202.910156 281.949219 201.367188 C 282.179688 199.828125 282.371094 198.28125 282.523438 196.730469 C 282.675781 195.175781 282.789062 193.621094 282.867188 192.066406 C 282.941406 190.507812 282.980469 188.949219 282.980469 187.390625 C 282.980469 185.832031 282.945312 184.273438 282.867188 182.714844 C 282.792969 181.15625 282.675781 179.601562 282.523438 178.046875 C 282.371094 176.496094 282.179688 174.945312 281.953125 173.402344 C 281.722656 171.859375 281.457031 170.324219 281.152344 168.792969 C 280.847656 167.261719 280.507812 165.742188 280.128906 164.226562 C 279.75 162.714844 279.332031 161.210938 278.878906 159.71875 C 278.425781 158.222656 277.9375 156.742188 277.414062 155.273438 C 276.886719 153.804688 276.324219 152.351562 275.726562 150.910156 C 275.132812 149.46875 274.5 148.039062 273.832031 146.628906 C 273.164062 145.21875 272.464844 143.828125 271.726562 142.453125 C 270.992188 141.074219 270.222656 139.71875 269.421875 138.378906 C 268.617188 137.042969 267.78125 135.722656 266.914062 134.425781 C 266.046875 133.128906 265.148438 131.855469 264.21875 130.601562 C 263.289062 129.351562 262.332031 128.121094 261.339844 126.914062 C 260.351562 125.707031 259.332031 124.527344 258.28125 123.371094 C 257.234375 122.21875 256.15625 121.085938 255.054688 119.984375 C 253.949219 118.882812 252.820312 117.808594 251.664062 116.761719 C 250.507812 115.710938 249.324219 114.695312 248.117188 113.707031 C 246.914062 112.714844 245.683594 111.757812 244.429688 110.828125 C 243.175781 109.898438 241.898438 109.003906 240.601562 108.136719 C 239.304688 107.269531 237.984375 106.4375 236.644531 105.636719 C 235.308594 104.835938 233.949219 104.066406 232.574219 103.332031 C 231.195312 102.597656 229.800781 101.898438 228.390625 101.230469 C 226.980469 100.566406 225.554688 99.933594 224.113281 99.339844 C 222.671875 98.742188 221.214844 98.183594 219.746094 97.660156 C 218.277344 97.132812 216.792969 96.644531 215.300781 96.195312 C 213.808594 95.742188 212.304688 95.328125 210.789062 94.949219 C 209.277344 94.574219 207.753906 94.234375 206.222656 93.929688 C 204.691406 93.628906 203.15625 93.363281 201.613281 93.136719 C 200.066406 92.90625 198.519531 92.71875 196.96875 92.566406 C 195.414062 92.417969 193.859375 92.304688 192.300781 92.230469 C 190.742188 92.152344 189.183594 92.117188 187.621094 92.121094 Z M 187.621094 276.019531 C 186.191406 275.992188 184.765625 275.933594 183.339844 275.839844 C 181.910156 275.742188 180.488281 275.613281 179.070312 275.449219 C 177.648438 275.285156 176.234375 275.085938 174.824219 274.855469 C 173.410156 274.621094 172.007812 274.355469 170.609375 274.054688 C 169.210938 273.753906 167.824219 273.417969 166.441406 273.050781 C 165.0625 272.679688 163.6875 272.277344 162.328125 271.84375 C 160.964844 271.410156 159.613281 270.941406 158.277344 270.441406 C 156.9375 269.941406 155.609375 269.40625 154.296875 268.84375 C 152.984375 268.277344 151.683594 267.679688 150.402344 267.054688 C 149.117188 266.425781 147.847656 265.765625 146.597656 265.078125 C 145.34375 264.386719 144.109375 263.667969 142.890625 262.917969 C 141.675781 262.167969 140.476562 261.390625 139.296875 260.582031 C 138.117188 259.773438 136.957031 258.941406 135.816406 258.074219 C 134.679688 257.210938 133.5625 256.320312 132.464844 255.402344 C 131.371094 254.484375 130.296875 253.539062 129.246094 252.570312 C 128.195312 251.601562 127.171875 250.605469 126.167969 249.585938 C 125.167969 248.566406 124.191406 247.523438 123.238281 246.453125 C 122.289062 245.386719 121.363281 244.296875 120.464844 243.183594 C 119.566406 242.074219 118.695312 240.9375 117.855469 239.785156 C 117.011719 238.628906 116.195312 237.457031 115.410156 236.261719 C 114.625 235.066406 113.867188 233.855469 113.140625 232.625 C 112.414062 231.394531 111.714844 230.148438 111.046875 228.882812 C 110.382812 227.617188 109.746094 226.335938 109.140625 225.042969 C 108.535156 223.746094 107.964844 222.4375 107.421875 221.113281 C 106.882812 219.789062 106.371094 218.457031 105.894531 217.105469 C 105.421875 215.757812 104.976562 214.402344 104.566406 213.03125 C 104.15625 211.660156 103.777344 210.28125 103.4375 208.894531 C 103.09375 207.507812 102.78125 206.113281 102.507812 204.710938 C 102.230469 203.308594 101.988281 201.898438 101.78125 200.484375 C 101.574219 199.070312 101.402344 197.652344 101.261719 196.226562 C 101.125 194.804688 101.019531 193.378906 100.953125 191.953125 C 100.882812 190.523438 100.847656 189.09375 100.847656 187.664062 C 100.847656 186.234375 100.882812 184.808594 100.953125 183.378906 C 101.019531 181.949219 101.125 180.527344 101.261719 179.101562 C 101.402344 177.679688 101.574219 176.261719 101.78125 174.847656 C 101.988281 173.433594 102.230469 172.023438 102.507812 170.621094 C 102.78125 169.21875 103.09375 167.824219 103.4375 166.433594 C 103.777344 165.046875 104.15625 163.667969 104.566406 162.300781 C 104.976562 160.929688 105.421875 159.570312 105.894531 158.222656 C 106.371094 156.875 106.882812 155.539062 107.421875 154.214844 C 107.964844 152.894531 108.535156 151.585938 109.140625 150.289062 C 109.746094 148.992188 110.382812 147.714844 111.046875 146.449219 C 111.714844 145.183594 112.414062 143.9375 113.140625 142.707031 C 113.867188 141.476562 114.625 140.261719 115.410156 139.070312 C 116.195312 137.875 117.011719 136.699219 117.855469 135.546875 C 118.695312 134.390625 119.566406 133.257812 120.464844 132.144531 C 121.363281 131.035156 122.289062 129.945312 123.238281 128.875 C 124.191406 127.808594 125.167969 126.765625 126.167969 125.746094 C 127.171875 124.726562 128.195312 123.730469 129.246094 122.761719 C 130.296875 121.789062 131.371094 120.847656 132.464844 119.925781 C 133.5625 119.007812 134.679688 118.117188 135.816406 117.253906 C 136.957031 116.390625 138.117188 115.554688 139.296875 114.746094 C 140.476562 113.941406 141.675781 113.160156 142.890625 112.410156 C 144.109375 111.664062 145.34375 110.941406 146.597656 110.253906 C 147.847656 109.5625 149.117188 108.90625 150.402344 108.277344 C 151.683594 107.648438 152.984375 107.054688 154.296875 106.488281 C 155.609375 105.921875 156.9375 105.390625 158.277344 104.890625 C 159.613281 104.390625 160.964844 103.921875 162.328125 103.488281 C 163.6875 103.050781 165.0625 102.648438 166.441406 102.28125 C 167.824219 101.914062 169.210938 101.578125 170.609375 101.277344 C 172.007812 100.976562 173.410156 100.710938 174.824219 100.476562 C 176.234375 100.242188 177.648438 100.046875 179.070312 99.882812 C 180.488281 99.714844 181.910156 99.585938 183.339844 99.492188 C 184.765625 99.398438 186.191406 99.335938 187.621094 99.3125 C 189.050781 99.335938 190.480469 99.398438 191.90625 99.492188 C 193.332031 99.585938 194.753906 99.714844 196.175781 99.882812 C 197.597656 100.046875 199.011719 100.242188 200.421875 100.476562 C 201.832031 100.710938 203.234375 100.976562 204.632812 101.277344 C 206.03125 101.578125 207.421875 101.914062 208.800781 102.28125 C 210.183594 102.648438 211.554688 103.050781 212.917969 103.488281 C 214.277344 103.921875 215.628906 104.390625 216.96875 104.890625 C 218.308594 105.390625 219.632812 105.921875 220.945312 106.488281 C 222.261719 107.054688 223.558594 107.648438 224.84375 108.277344 C 226.128906 108.90625 227.394531 109.5625 228.648438 110.253906 C 229.898438 110.941406 231.136719 111.664062 232.351562 112.410156 C 233.570312 113.160156 234.769531 113.941406 235.949219 114.746094 C 237.128906 115.554688 238.289062 116.390625 239.425781 117.253906 C 240.566406 118.117188 241.683594 119.007812 242.777344 119.925781 C 243.875 120.847656 244.949219 121.789062 245.996094 122.761719 C 247.046875 123.730469 248.074219 124.726562 249.074219 125.746094 C 250.078125 126.765625 251.054688 127.808594 252.003906 128.875 C 252.957031 129.945312 253.878906 131.035156 254.777344 132.144531 C 255.675781 133.257812 256.546875 134.390625 257.390625 135.546875 C 258.234375 136.699219 259.046875 137.875 259.835938 139.070312 C 260.621094 140.261719 261.378906 141.476562 262.105469 142.707031 C 262.832031 143.9375 263.527344 145.183594 264.195312 146.449219 C 264.863281 147.714844 265.5 148.992188 266.101562 150.289062 C 266.707031 151.585938 267.28125 152.894531 267.820312 154.214844 C 268.363281 155.539062 268.871094 156.875 269.347656 158.222656 C 269.824219 159.570312 270.265625 160.929688 270.675781 162.300781 C 271.089844 163.667969 271.464844 165.046875 271.808594 166.433594 C 272.152344 167.824219 272.460938 169.21875 272.738281 170.621094 C 273.011719 172.023438 273.253906 173.433594 273.460938 174.847656 C 273.667969 176.261719 273.84375 177.679688 273.980469 179.101562 C 274.121094 180.527344 274.222656 181.949219 274.292969 183.378906 C 274.363281 184.808594 274.398438 186.234375 274.398438 187.664062 C 274.398438 189.09375 274.363281 190.523438 274.292969 191.953125 C 274.222656 193.378906 274.121094 194.804688 273.980469 196.226562 C 273.84375 197.652344 273.667969 199.070312 273.460938 200.484375 C 273.253906 201.898438 273.011719 203.308594 272.738281 204.710938 C 272.460938 206.113281 272.152344 207.507812 271.808594 208.894531 C 271.464844 210.28125 271.089844 211.660156 270.675781 213.03125 C 270.265625 214.402344 269.824219 215.757812 269.347656 217.105469 C 268.871094 218.457031 268.363281 219.789062 267.820312 221.113281 C 267.28125 222.4375 266.707031 223.746094 266.101562 225.042969 C 265.5 226.335938 264.863281 227.617188 264.195312 228.882812 C 263.527344 230.148438 262.832031 231.394531 262.105469 232.625 C 261.378906 233.855469 260.621094 235.066406 259.835938 236.261719 C 259.046875 237.457031 258.234375 238.628906 257.390625 239.785156 C 256.546875 240.9375 255.675781 242.074219 254.777344 243.183594 C 253.878906 244.296875 252.957031 245.386719 252.003906 246.453125 C 251.054688 247.523438 250.078125 248.566406 249.074219 249.585938 C 248.074219 250.605469 247.046875 251.601562 245.996094 252.570312 C 244.949219 253.539062 243.875 254.484375 242.777344 255.402344 C 241.683594 256.320312 240.566406 257.210938 239.425781 258.074219 C 238.289062 258.941406 237.128906 259.773438 235.949219 260.582031 C 234.769531 261.390625 233.570312 262.167969 232.351562 262.917969 C 231.136719 263.667969 229.898438 264.386719 228.648438 265.078125 C 227.394531 265.765625 226.128906 266.425781 224.84375 267.054688 C 223.558594 267.679688 222.261719 268.277344 220.945312 268.84375 C 219.632812 269.40625 218.308594 269.941406 216.96875 270.441406 C 215.628906 270.941406 214.277344 271.410156 212.917969 271.84375 C 211.554688 272.277344 210.183594 272.679688 208.800781 273.050781 C 207.421875 273.417969 206.03125 273.753906 204.632812 274.054688 C 203.234375 274.355469 201.832031 274.621094 200.421875 274.855469 C 199.011719 275.085938 197.597656 275.285156 196.175781 275.449219 C 194.753906 275.613281 193.332031 275.742188 191.90625 275.839844 C 190.480469 275.933594 189.050781 275.992188 187.621094 276.019531 Z M 187.621094 276.019531 " fill-opacity="1" fill-rule="nonzero"/><path fill="#4c91d4" d="M 233.070312 191.277344 L 191.304688 191.277344 L 191.304688 221.480469 C 203.683594 221.59375 216.003906 222.484375 228.269531 224.15625 C 231.242188 213.394531 232.84375 202.4375 233.070312 191.277344 Z M 233.070312 191.277344 " fill-opacity="1" fill-rule="nonzero"/><path fill="#4c91d4" d="M 252.75 139.152344 C 250.285156 135.863281 247.59375 132.78125 244.664062 129.898438 C 241.738281 127.019531 238.613281 124.371094 235.285156 121.964844 C 231.960938 119.554688 228.472656 117.410156 224.824219 115.527344 C 221.171875 113.644531 217.402344 112.042969 213.511719 110.730469 C 218.019531 115.316406 221.933594 120.363281 225.253906 125.871094 C 228.570312 131.378906 231.207031 137.195312 233.160156 143.324219 C 239.949219 142.113281 246.476562 140.734375 252.75 139.152344 Z M 252.75 139.152344 " fill-opacity="1" fill-rule="nonzero"/><path fill="#4c91d4" d="M 191.304688 106.789062 L 191.304688 146.660156 C 202.933594 146.542969 214.519531 145.738281 226.054688 144.242188 C 218.601562 123.1875 205.917969 108.804688 191.304688 106.789062 Z M 191.304688 106.789062 " fill-opacity="1" fill-rule="nonzero"/><path fill="#4c91d4" d="M 228.269531 151.175781 C 216.003906 152.84375 203.683594 153.734375 191.304688 153.851562 L 191.304688 184.082031 L 233.070312 184.082031 C 232.847656 172.914062 231.246094 161.945312 228.269531 151.175781 Z M 228.269531 151.175781 " fill-opacity="1" fill-rule="nonzero"/></svg>