<svg xmlns="http://www.w3.org/2000/svg" xmlns:xlink="http://www.w3.org/1999/xlink" width="500" zoomAndPan="magnify" viewBox="0 0 375 374.999991" height="500" preserveAspectRatio="xMidYMid meet" version="1.0"><defs><clipPath id="950f83c515"><path d="M 4.292969 6.335938 L 370.707031 6.335938 L 370.707031 372.75 L 4.292969 372.75 Z M 4.292969 6.335938 " clip-rule="nonzero"/></clipPath><clipPath id="56f7a8ab38"><path d="M 187.5 6.335938 C 86.316406 6.335938 4.292969 88.359375 4.292969 189.542969 C 4.292969 290.726562 86.316406 372.75 187.5 372.75 C 288.683594 372.75 370.707031 290.726562 370.707031 189.542969 C 370.707031 88.359375 288.683594 6.335938 187.5 6.335938 Z M 187.5 6.335938 " clip-rule="nonzero"/></clipPath><clipPath id="1edffb030b"><path d="M 97 89.277344 L 277.738281 89.277344 L 277.738281 235 L 97 235 Z M 97 89.277344 " clip-rule="nonzero"/></clipPath><clipPath id="1d42912301"><path d="M 97 205 L 277.738281 205 L 277.738281 235 L 97 235 Z M 97 205 " clip-rule="nonzero"/></clipPath><clipPath id="21e04a46bf"><path d="M 123 220 L 251 220 L 251 313.527344 L 123 313.527344 Z M 123 220 " clip-rule="nonzero"/></clipPath><clipPath id="e9b93cf9d8"><path d="M 123 248 L 251 248 L 251 313.527344 L 123 313.527344 Z M 123 248 " clip-rule="nonzero"/></clipPath></defs><g clip-path="url(#950f83c515)"><g clip-path="url(#56f7a8ab38)"><path fill="#ffffff" d="M 4.292969 6.335938 L 370.707031 6.335938 L 370.707031 372.75 L 4.292969 372.75 Z M 4.292969 6.335938 " fill-opacity="1" fill-rule="nonzero"/></g></g><g clip-path="url(#1edffb030b)"><path fill="#4187b5" d="M 109.726562 99.1875 L 161.148438 99.1875 L 168.554688 89.292969 L 210.917969 89.292969 L 218.328125 99.1875 L 265.046875 99.1875 C 272.042969 99.1875 277.765625 104.917969 277.765625 111.925781 L 277.765625 216.886719 C 277.765625 226.863281 269.644531 234.996094 259.6875 234.996094 L 115.089844 234.996094 C 105.132812 234.996094 97.011719 226.859375 97.011719 216.886719 L 97.011719 111.925781 C 97.011719 104.917969 102.734375 99.1875 109.726562 99.1875 Z M 109.726562 99.1875 " fill-opacity="1" fill-rule="evenodd"/></g><g clip-path="url(#1d42912301)"><path fill="#88c8fe" d="M 277.765625 205.296875 L 277.765625 216.886719 C 277.765625 226.863281 269.644531 234.996094 259.6875 234.996094 L 115.089844 234.996094 C 105.132812 234.996094 97.011719 226.859375 97.011719 216.886719 L 97.011719 205.296875 Z M 277.765625 205.296875 " fill-opacity="1" fill-rule="evenodd"/></g><path fill="#ffffff" d="M 236.539062 114.753906 L 261.554688 114.753906 C 262.441406 114.753906 263.167969 115.484375 263.167969 116.371094 L 263.167969 124.457031 C 263.167969 125.347656 262.441406 126.074219 261.554688 126.074219 L 236.539062 126.074219 C 235.652344 126.074219 234.925781 125.347656 234.925781 124.457031 L 234.925781 116.371094 C 234.925781 115.484375 235.652344 114.753906 236.539062 114.753906 Z M 236.539062 114.753906 " fill-opacity="1" fill-rule="evenodd"/><path fill="#88c8fe" d="M 187.386719 111.925781 C 208.445312 111.925781 225.515625 129.027344 225.515625 150.125 C 225.515625 171.21875 208.445312 188.320312 187.386719 188.320312 C 166.332031 188.320312 149.261719 171.21875 149.261719 150.125 C 149.261719 129.027344 166.332031 111.925781 187.386719 111.925781 Z M 187.386719 131.730469 C 177.25 131.730469 169.03125 139.964844 169.03125 150.121094 C 169.03125 160.28125 177.25 168.515625 187.386719 168.515625 C 197.527344 168.515625 205.746094 160.28125 205.746094 150.121094 C 205.746094 139.964844 197.527344 131.730469 187.386719 131.730469 Z M 187.386719 131.730469 " fill-opacity="1" fill-rule="evenodd"/><path fill="#ffffff" d="M 200.367188 137.117188 C 200.792969 137.542969 201.195312 137.992188 201.578125 138.457031 C 201.957031 138.921875 202.316406 139.40625 202.652344 139.90625 C 202.984375 140.40625 203.292969 140.921875 203.578125 141.453125 C 203.859375 141.984375 204.117188 142.527344 204.347656 143.085938 C 204.578125 143.640625 204.78125 144.207031 204.953125 144.785156 C 205.128906 145.359375 205.273438 145.945312 205.390625 146.535156 C 205.507812 147.125 205.597656 147.722656 205.65625 148.320312 C 205.714844 148.917969 205.746094 149.519531 205.746094 150.125 C 205.746094 150.726562 205.714844 151.328125 205.65625 151.925781 C 205.597656 152.523438 205.507812 153.121094 205.390625 153.710938 C 205.273438 154.300781 205.128906 154.886719 204.953125 155.460938 C 204.78125 156.039062 204.578125 156.605469 204.347656 157.160156 C 204.117188 157.71875 203.859375 158.261719 203.578125 158.792969 C 203.292969 159.324219 202.984375 159.839844 202.652344 160.339844 C 202.316406 160.839844 201.960938 161.324219 201.578125 161.789062 C 201.195312 162.253906 200.792969 162.703125 200.367188 163.128906 C 199.941406 163.554688 199.496094 163.957031 199.03125 164.339844 C 198.566406 164.722656 198.085938 165.082031 197.585938 165.414062 C 197.085938 165.75 196.570312 166.058594 196.039062 166.34375 C 195.511719 166.625 194.96875 166.882812 194.414062 167.113281 C 193.855469 167.34375 193.292969 167.546875 192.714844 167.722656 C 192.140625 167.898438 191.558594 168.042969 190.96875 168.160156 C 190.378906 168.277344 189.785156 168.367188 189.1875 168.425781 C 188.589844 168.484375 187.988281 168.515625 187.386719 168.515625 C 186.785156 168.515625 186.1875 168.484375 185.585938 168.425781 C 184.988281 168.367188 184.394531 168.277344 183.804688 168.160156 C 183.214844 168.042969 182.632812 167.898438 182.058594 167.722656 C 181.484375 167.546875 180.917969 167.34375 180.363281 167.113281 C 179.804688 166.882812 179.261719 166.625 178.734375 166.34375 C 178.203125 166.058594 177.6875 165.75 177.1875 165.414062 C 176.6875 165.082031 176.207031 164.722656 175.742188 164.339844 C 175.277344 163.957031 174.832031 163.554688 174.40625 163.128906 C 173.980469 162.703125 173.578125 162.257812 173.195312 161.789062 C 172.816406 161.324219 172.457031 160.84375 172.121094 160.339844 C 171.789062 159.839844 171.480469 159.324219 171.195312 158.792969 C 170.914062 158.261719 170.65625 157.71875 170.425781 157.160156 C 170.195312 156.605469 169.992188 156.039062 169.820312 155.460938 C 169.644531 154.886719 169.5 154.300781 169.382812 153.710938 C 169.265625 153.121094 169.175781 152.527344 169.117188 151.925781 C 169.058594 151.328125 169.027344 150.726562 169.027344 150.125 C 169.027344 149.519531 169.058594 148.921875 169.117188 148.320312 C 169.175781 147.722656 169.265625 147.125 169.382812 146.535156 C 169.5 145.945312 169.644531 145.363281 169.820312 144.785156 C 169.992188 144.207031 170.195312 143.640625 170.425781 143.085938 C 170.65625 142.53125 170.914062 141.984375 171.195312 141.453125 C 171.480469 140.921875 171.789062 140.40625 172.121094 139.90625 C 172.457031 139.40625 172.8125 138.921875 173.195312 138.457031 C 173.578125 137.992188 173.980469 137.546875 174.40625 137.121094 C 174.832031 136.695312 175.277344 136.289062 175.742188 135.90625 C 176.207031 135.523438 176.6875 135.167969 177.1875 134.832031 C 177.6875 134.496094 178.203125 134.1875 178.734375 133.902344 C 179.261719 133.621094 179.804688 133.363281 180.359375 133.132812 C 180.917969 132.902344 181.480469 132.699219 182.058594 132.523438 C 182.632812 132.351562 183.214844 132.203125 183.804688 132.085938 C 184.394531 131.96875 184.988281 131.878906 185.585938 131.820312 C 186.183594 131.761719 186.785156 131.734375 187.386719 131.734375 C 187.988281 131.734375 188.585938 131.761719 189.1875 131.820312 C 189.785156 131.878906 190.378906 131.96875 190.96875 132.085938 C 191.558594 132.203125 192.140625 132.347656 192.714844 132.523438 C 193.289062 132.699219 193.855469 132.902344 194.410156 133.132812 C 194.96875 133.363281 195.511719 133.621094 196.039062 133.902344 C 196.570312 134.1875 197.085938 134.496094 197.585938 134.832031 C 198.085938 135.167969 198.566406 135.523438 199.03125 135.90625 C 199.496094 136.289062 199.941406 136.691406 200.367188 137.117188 Z M 200.367188 137.117188 " fill-opacity="1" fill-rule="nonzero"/><g clip-path="url(#21e04a46bf)"><path fill="#fa6e85" d="M 123.84375 220.144531 L 250.933594 220.144531 L 250.933594 308.421875 C 250.933594 311.226562 248.648438 313.515625 245.847656 313.515625 L 128.925781 313.515625 C 126.125 313.515625 123.84375 311.226562 123.84375 308.421875 Z M 123.84375 220.144531 " fill-opacity="1" fill-rule="evenodd"/></g><g clip-path="url(#e9b93cf9d8)"><path fill="#19cfba" d="M 250.933594 277.820312 L 250.933594 308.421875 C 250.933594 311.226562 248.648438 313.515625 245.847656 313.515625 L 128.925781 313.515625 C 126.125 313.515625 123.84375 311.226562 123.84375 308.421875 L 123.84375 292.378906 L 163.382812 259.757812 L 191.625 288.050781 L 225.515625 248.4375 Z M 250.933594 277.820312 " fill-opacity="1" fill-rule="evenodd"/></g><path fill="#ffe177" d="M 202.691406 244.617188 C 202.847656 245.4375 202.925781 246.265625 202.921875 247.101562 C 202.914062 247.9375 202.828125 248.765625 202.660156 249.585938 C 202.492188 250.40625 202.246094 251.199219 201.921875 251.96875 C 201.597656 252.738281 201.203125 253.472656 200.734375 254.164062 C 200.265625 254.855469 199.738281 255.496094 199.144531 256.082031 C 198.550781 256.671875 197.902344 257.195312 197.207031 257.65625 C 196.511719 258.113281 195.777344 258.503906 195.003906 258.816406 C 194.230469 259.132812 193.433594 259.371094 192.613281 259.527344 C 191.796875 259.6875 190.96875 259.761719 190.132812 259.757812 C 189.300781 259.753906 188.472656 259.664062 187.65625 259.496094 C 186.839844 259.328125 186.046875 259.082031 185.277344 258.757812 C 184.507812 258.433594 183.777344 258.039062 183.085938 257.570312 C 182.394531 257.101562 181.757812 256.566406 181.167969 255.972656 C 180.582031 255.378906 180.058594 254.730469 179.601562 254.035156 C 179.140625 253.335938 178.753906 252.601562 178.441406 251.824219 C 178.125 251.050781 177.890625 250.253906 177.730469 249.433594 C 177.574219 248.613281 177.496094 247.785156 177.503906 246.949219 C 177.507812 246.113281 177.59375 245.285156 177.761719 244.464844 C 177.929688 243.644531 178.175781 242.851562 178.5 242.082031 C 178.824219 241.3125 179.21875 240.578125 179.6875 239.886719 C 180.15625 239.195312 180.6875 238.554688 181.28125 237.96875 C 181.875 237.378906 182.519531 236.855469 183.214844 236.394531 C 183.910156 235.9375 184.648438 235.546875 185.417969 235.234375 C 186.191406 234.917969 186.988281 234.679688 187.808594 234.523438 C 188.628906 234.363281 189.453125 234.289062 190.289062 234.292969 C 191.125 234.296875 191.949219 234.386719 192.765625 234.554688 C 193.585938 234.722656 194.378906 234.96875 195.148438 235.292969 C 195.914062 235.617188 196.644531 236.015625 197.335938 236.484375 C 198.027344 236.953125 198.667969 237.484375 199.253906 238.078125 C 199.839844 238.671875 200.363281 239.320312 200.820312 240.015625 C 201.28125 240.714844 201.667969 241.449219 201.984375 242.226562 C 202.296875 243 202.535156 243.796875 202.691406 244.617188 Z M 202.691406 244.617188 " fill-opacity="1" fill-rule="nonzero"/><path fill="#4187b5" d="M 113.957031 223.648438 C 112.027344 223.648438 110.460938 222.082031 110.460938 220.144531 C 110.460938 218.210938 112.027344 216.640625 113.957031 216.640625 L 260.820312 216.640625 C 262.75 216.640625 264.316406 218.210938 264.316406 220.144531 C 264.316406 222.082031 262.75 223.648438 260.820312 223.648438 Z M 113.957031 223.648438 " fill-opacity="1" fill-rule="evenodd"/><path fill="#ffffff" d="M 125.605469 111.78125 C 128.371094 123.042969 134.394531 131.980469 141.984375 136.085938 C 134.394531 140.1875 128.371094 149.125 125.605469 160.390625 C 122.839844 149.125 116.8125 140.1875 109.222656 136.085938 C 116.8125 131.980469 122.839844 123.042969 125.605469 111.78125 Z M 125.605469 111.78125 " fill-opacity="1" fill-rule="evenodd"/></svg>