<svg width="375" height="374.999991" xmlns="http://www.w3.org/2000/svg" version="1.0" preserveAspectRatio="xMidYMid meet" zoomAndPan="magnify">
 <defs>
  <clipPath id="f83f4ff38e">
   <path id="svg_1" clip-rule="nonzero" d="m4.29297,6.33594l366.41406,0l0,366.41406l-366.41406,0l0,-366.41406zm0,0"/>
  </clipPath>
  <clipPath id="fa309845eb">
   <path id="svg_2" clip-rule="nonzero" d="m187.5,6.33594c-101.18359,0 -183.20703,82.02344 -183.20703,183.20703c0,101.18359 82.02344,183.20703 183.20703,183.20703c101.18359,0 183.20703,-82.02344 183.20703,-183.20703c0,-101.18359 -82.02344,-183.20703 -183.20703,-183.20703zm0,0"/>
  </clipPath>
  <clipPath id="5e42a8f40c">
   <path id="svg_3" clip-rule="nonzero" d="m133,68.39844l109,0l0,173.60156l-109,0l0,-173.60156zm0,0"/>
  </clipPath>
  <clipPath id="cec8230bb9">
   <path id="svg_4" clip-rule="nonzero" d="m117,270l142,0l0,40.64844l-142,0l0,-40.64844zm0,0"/>
  </clipPath>
 </defs>
 <g>
  <title>Layer 1</title>
  <g id="svg_6" clip-path="url(#fa309845eb)">
   <path id="svg_7" fill-rule="nonzero" d="m4.29297,6.33594l366.41406,0l0,366.41406l-366.41406,0l0,-366.41406zm0,0" fill="#ffff00"/>
  </g>
  <path id="svg_8" fill-rule="nonzero" d="m133.98438,261.86719l0,4.58984l107.38281,0l0,-4.58984c0,-3.40235 -2.77344,-6.16797 -6.17969,-6.16797l-95.01953,0c-3.41016,-0.00391 -6.18359,2.76562 -6.18359,6.16797zm0,0" fill="#000000"/>
  <g id="svg_9" clip-path="url(#5e42a8f40c)">
   <path id="svg_10" fill-rule="nonzero" d="m154.76953,174.39063c2.46875,2.29687 5.17188,4.28125 7.78516,6.19921c6.61719,4.85938 12.86719,9.44532 14.23828,18.09375c0.26172,1.66407 0.23828,2.82813 0.16797,6.6836c-0.04297,2.27344 -0.10547,5.53515 -0.14453,10.47656c-0.04688,6.19922 -0.02735,11.29297 0,14.69922c0.0039,0.73828 -0.39844,1.41797 -1.05078,1.76562l-16.58594,8.89063l56.99609,0l-16.58984,-8.89063c-0.64844,-0.34765 -1.05469,-1.02734 -1.04688,-1.76562c0.02344,-3.41016 0.04297,-8.5 0,-14.69922c-0.03906,-4.94141 -0.10156,-8.20312 -0.14453,-10.47656c-0.07422,-3.85547 -0.09375,-5.01953 0.16797,-6.6836c1.37109,-8.64843 7.62109,-13.23437 14.23828,-18.09375c2.60938,-1.91796 5.3125,-3.89843 7.78516,-6.19921c11.28906,-10.49219 14.74609,-24.98829 18.65625,-55.61719c2.10937,-16.51172 2.84765,-33.44922 2.20703,-50.375l-107.54297,0c-0.64453,16.92578 0.09375,33.86328 2.20313,50.375c3.91015,30.6289 7.36718,45.125 18.66015,55.61719zm21.38672,-66.21485l11.51953,-23.29297l11.51953,23.29297l25.76172,3.73438l-18.64062,18.1289l4.39843,25.60157l-23.03906,-12.08985l-23.03906,12.08985l4.40234,-25.60157l-18.64062,-18.1289l25.75781,-3.73438zm0,0" fill="#000000"/>
  </g>
  <path id="svg_11" fill-rule="nonzero" d="m223.40234,245.17188l-71.45312,0c-1.06641,0.875 -2.51172,2.43359 -3.01953,4.75c-0.12891,0.59375 -0.17578,1.19531 -0.16406,1.80078l77.82031,0c0.01172,-0.60547 -0.03516,-1.20703 -0.16406,-1.80078c-0.50391,-2.31641 -1.95313,-3.875 -3.01954,-4.75zm0,0" fill="#000000"/>
  <path id="svg_12" fill-rule="nonzero" d="m133.9375,132.07813c-5.47656,-2.13672 -14.29687,-6.97266 -19.37891,-17.06641c-2.3125,-4.59375 -3.51953,-9.57422 -3.58984,-14.79297c-0.02734,-2.23047 0.82422,-4.33594 2.39844,-5.92969c1.59765,-1.61328 3.73828,-2.5039 6.02734,-2.5039l10.53125,0c-0.10547,-2.87891 -0.16797,-5.76563 -0.19531,-8.65625l-21.29297,0c-1.94531,0 -3.64453,1.21875 -4.23047,3.02734c-1.65234,5.10938 -4.72656,18.52344 2.39063,32.67188c7.9414,15.77343 23.02343,21.28515 28.98047,22.90234c-0.57422,-2.99609 -1.11329,-6.20703 -1.64063,-9.65234zm0,0" fill="#000000"/>
  <g id="svg_13" clip-path="url(#cec8230bb9)">
   <path id="svg_14" fill-rule="nonzero" d="m125.07031,270.42578l-7.79687,40.22266l140.80469,0l-7.79688,-40.22266l-125.21094,0zm79.73828,27.47656l-34.26562,0l0,-12.625l34.26562,0l0,12.625zm0,0" fill="#000000"/>
  </g>
  <path id="svg_15" fill-rule="nonzero" d="m271.14453,86.15625c-0.58594,-1.80859 -2.28515,-3.02734 -4.22656,-3.02734l-21.29688,0c-0.02734,2.89062 -0.08593,5.77734 -0.19531,8.65625l10.53125,0c2.28906,0 4.42969,0.89062 6.02735,2.5039c1.57421,1.59375 2.42578,3.69922 2.39843,5.92969c-0.07031,5.21875 -1.27734,10.19922 -3.58984,14.79297c-5.08203,10.09375 -13.90234,14.92969 -19.37891,17.06641c-0.52343,3.44531 -1.0664,6.65625 -1.64062,9.65234c6.1289,-1.67578 21.08594,-7.22266 28.98047,-22.90234c7.11718,-14.14844 4.04297,-27.5625 2.39062,-32.67188zm0,0" fill="#000000"/>
 </g>
</svg>