<svg width="375" height="374.999991" xmlns="http://www.w3.org/2000/svg" version="1.0" preserveAspectRatio="xMidYMid meet" zoomAndPan="magnify">
 <defs>
  <clipPath id="3868e4481d">
   <path id="svg_1" clip-rule="nonzero" d="m4.29297,6.33594l366.41406,0l0,366.41406l-366.41406,0l0,-366.41406zm0,0"/>
  </clipPath>
  <clipPath id="042760aca2">
   <path id="svg_2" clip-rule="nonzero" d="m187.5,6.33594c-101.18359,0 -183.20703,82.02344 -183.20703,183.20703c0,101.18359 82.02344,183.20703 183.20703,183.20703c101.18359,0 183.20703,-82.02344 183.20703,-183.20703c0,-101.18359 -82.02344,-183.20703 -183.20703,-183.20703zm0,0"/>
  </clipPath>
  <clipPath id="aba8f27e1d">
   <path id="svg_3" clip-rule="nonzero" d="m236,265l46,0l0,30.03906l-46,0l0,-30.03906zm0,0"/>
  </clipPath>
  <clipPath id="32b1ad97de">
   <path id="svg_4" clip-rule="nonzero" d="m164,265l46,0l0,30.03906l-46,0l0,-30.03906zm0,0"/>
  </clipPath>
  <clipPath id="c63d8e47f6">
   <path id="svg_5" clip-rule="nonzero" d="m97,232l19,0l0,63.03906l-19,0l0,-63.03906zm0,0"/>
  </clipPath>
  <clipPath id="ba229e9d61">
   <path id="svg_6" clip-rule="nonzero" d="m120,232l19,0l0,63.03906l-19,0l0,-63.03906zm0,0"/>
  </clipPath>
  <clipPath id="01b7b32c93">
   <path id="svg_7" clip-rule="nonzero" d="m115,79.78906l180.03906,0l0,121.21094l-180.03906,0l0,-121.21094zm0,0"/>
  </clipPath>
  <clipPath id="e2a3ab8754">
   <path id="svg_8" clip-rule="nonzero" d="m79.78906,151l108.21094,0l0,77l-108.21094,0l0,-77zm0,0"/>
  </clipPath>
 </defs>
 <g>
  <title>Layer 1</title>
  <g id="svg_9" clip-path="url(#3868e4481d)">
   <g id="svg_10" clip-path="url(#042760aca2)">
    <path id="svg_11" fill-rule="nonzero" d="m4.29297,6.33594l366.41406,0l0,366.41406l-366.41406,0l0,-366.41406zm0,0" fill="#ffff00"/>
   </g>
  </g>
  <path id="svg_12" fill-rule="nonzero" d="m271.16797,248.74609c0,0.78516 -0.07813,1.56641 -0.23047,2.33985c-0.15625,0.77344 -0.38281,1.52344 -0.68359,2.2539c-0.30078,0.72657 -0.67188,1.41797 -1.10938,2.07422c-0.4375,0.65235 -0.9375,1.26172 -1.49219,1.81641c-0.55859,0.55859 -1.16406,1.05469 -1.82031,1.49219c-0.65625,0.4375 -1.34765,0.80859 -2.07422,1.10937c-0.72656,0.30469 -1.48047,0.53125 -2.25,0.6836c-0.77343,0.15625 -1.55468,0.23046 -2.34375,0.23046c-0.78906,0 -1.5664,-0.07421 -2.33984,-0.23046c-0.77344,-0.15235 -1.52344,-0.37891 -2.25391,-0.6836c-0.72656,-0.30078 -1.41797,-0.67187 -2.07422,-1.10937c-0.65625,-0.4375 -1.26171,-0.9336 -1.8164,-1.49219c-0.5586,-0.55469 -1.05469,-1.16406 -1.4961,-1.81641c-0.4375,-0.65625 -0.80468,-1.34765 -1.10546,-2.07422c-0.30469,-0.73046 -0.53125,-1.48046 -0.6836,-2.2539c-0.15625,-0.77344 -0.23047,-1.55469 -0.23047,-2.33985c0,-0.78906 0.07422,-1.57031 0.23047,-2.34375c0.15235,-0.77343 0.37891,-1.52343 0.6836,-2.25c0.30078,-0.73046 0.66796,-1.42187 1.10546,-2.07421c0.44141,-0.65625 0.9375,-1.26172 1.4961,-1.82032c0.55469,-0.55859 1.16015,-1.05468 1.8164,-1.49218c0.65625,-0.4375 1.34766,-0.8086 2.07422,-1.10938c0.73047,-0.30078 1.48047,-0.52734 2.25391,-0.68359c0.77344,-0.15235 1.55078,-0.23047 2.33984,-0.23047c0.78907,0 1.57032,0.07812 2.34375,0.23047c0.76953,0.15625 1.52344,0.38281 2.25,0.68359c0.72657,0.30078 1.41797,0.67188 2.07422,1.10938c0.65625,0.4375 1.26172,0.93359 1.82031,1.49218c0.55469,0.5586 1.05469,1.16407 1.49219,1.82032c0.4375,0.65234 0.8086,1.34375 1.10938,2.07421c0.30078,0.72657 0.52734,1.47657 0.68359,2.25c0.15234,0.77344 0.23047,1.55469 0.23047,2.34375zm0,0" fill="#000000"/>
  <g id="svg_13" clip-path="url(#aba8f27e1d)">
   <path id="svg_14" fill-rule="nonzero" d="m259.16406,265.23047c-12.36328,0 -22.42187,10.05859 -22.42187,22.42187l0,7.38672l44.84375,0l0,-7.38672c0,-12.36328 -10.0586,-22.42187 -22.42188,-22.42187zm0,0" fill="#000000"/>
  </g>
  <path id="svg_15" fill-rule="nonzero" d="m117.90625,147.05469c8.53906,0 15.48438,-6.94531 15.48438,-15.48438c0,-9.96484 -9.33985,-17.39453 -19.09375,-15.05468c-0.17579,0.07421 -0.36329,0.11718 -0.5586,0.14453c-6.51953,1.82812 -11.3164,7.8164 -11.3164,14.91015c0,8.53907 6.94531,15.48438 15.48437,15.48438zm0,0" fill="#000000"/>
  <path id="svg_16" fill-rule="nonzero" d="m199.41797,248.74609c0,0.78516 -0.07813,1.56641 -0.23047,2.33985c-0.15625,0.77344 -0.38281,1.52344 -0.68359,2.2539c-0.30078,0.72657 -0.67188,1.41797 -1.10938,2.07422c-0.4375,0.65235 -0.9375,1.26172 -1.49219,1.81641c-0.55859,0.55859 -1.16406,1.05469 -1.82031,1.49219c-0.65625,0.4375 -1.34765,0.80859 -2.07422,1.10937c-0.72656,0.30469 -1.48047,0.53125 -2.25,0.6836c-0.77343,0.15625 -1.55468,0.23046 -2.34375,0.23046c-0.78906,0 -1.5664,-0.07421 -2.33984,-0.23046c-0.77344,-0.15235 -1.52344,-0.37891 -2.25391,-0.6836c-0.72656,-0.30078 -1.41797,-0.67187 -2.07422,-1.10937c-0.65625,-0.4375 -1.26171,-0.9336 -1.8164,-1.49219c-0.5586,-0.55469 -1.05469,-1.16406 -1.4961,-1.81641c-0.4375,-0.65625 -0.80468,-1.34765 -1.10546,-2.07422c-0.30469,-0.73046 -0.53125,-1.48046 -0.6836,-2.2539c-0.15625,-0.77344 -0.23047,-1.55469 -0.23047,-2.33985c0,-0.78906 0.07422,-1.57031 0.23047,-2.34375c0.15235,-0.77343 0.37891,-1.52343 0.6836,-2.25c0.30078,-0.73046 0.66796,-1.42187 1.10546,-2.07421c0.44141,-0.65625 0.9375,-1.26172 1.4961,-1.82032c0.55469,-0.55859 1.16015,-1.05468 1.8164,-1.49218c0.65625,-0.4375 1.34766,-0.8086 2.07422,-1.10938c0.73047,-0.30078 1.48047,-0.52734 2.25391,-0.68359c0.77344,-0.15235 1.55078,-0.23047 2.33984,-0.23047c0.78907,0 1.57032,0.07812 2.34375,0.23047c0.76953,0.15625 1.52344,0.38281 2.25,0.68359c0.72657,0.30078 1.41797,0.67188 2.07422,1.10938c0.65625,0.4375 1.26172,0.93359 1.82031,1.49218c0.55469,0.5586 1.05469,1.16407 1.49219,1.82032c0.4375,0.65234 0.8086,1.34375 1.10938,2.07421c0.30078,0.72657 0.52734,1.47657 0.68359,2.25c0.15234,0.77344 0.23047,1.55469 0.23047,2.34375zm0,0" fill="#000000"/>
  <g id="svg_17" clip-path="url(#32b1ad97de)">
   <path id="svg_18" fill-rule="nonzero" d="m187.41406,265.23047c-12.36328,0 -22.42187,10.05859 -22.42187,22.42187l0,7.38672l44.84375,0l0,-7.38672c0,-12.36328 -10.0586,-22.42187 -22.42188,-22.42187zm0,0" fill="#000000"/>
  </g>
  <path id="svg_19" fill-rule="nonzero" d="m130.5,147.05469l50.1875,0c6.18359,0 11.21094,5.03125 11.21094,11.21094c0,6.1914 -5.01563,11.21093 -11.21094,11.21093l-38.11719,0l0,13.45313l134.53125,0l0,-85.20313l-143.5,0l0,21.51953c6.76172,8.59375 5.33594,20.9336 -3.10156,27.8086zm127.24219,22.42187l-49.59375,0c-1.23828,0 -2.24219,-1.0039 -2.24219,-2.24218c0,-1.23829 1.00391,-2.24219 2.24219,-2.24219l49.59375,0c1.23828,0 2.24219,1.0039 2.24219,2.24219c0,1.23828 -1.00391,2.24218 -2.24219,2.24218zm2.23828,-20.46875c0,1.23828 -1,2.24219 -2.24219,2.24219l-49.58984,0c-1.23828,0 -2.24219,-1.00391 -2.24219,-2.24219c0,-1.23828 1.00391,-2.24218 2.24219,-2.24218l49.58984,0c1.24219,0 2.24219,1.0039 2.24219,2.24218zm-106.19922,-37.82812l103.14063,0c1.23828,0 2.24218,1.0039 2.24218,2.24219c0,1.23828 -1.0039,2.24218 -2.24218,2.24218l-103.14063,0c-1.23828,0 -2.24219,-1.0039 -2.24219,-2.24218c0,-1.23829 1.00391,-2.24219 2.24219,-2.24219zm0,17.9375l103.14063,0c1.23828,0 2.24218,1.0039 2.24218,2.24219c0,1.23828 -1.0039,2.24218 -2.24218,2.24218l-103.14063,0c-1.23828,0 -2.24219,-1.0039 -2.24219,-2.24218c0,-1.23829 1.00391,-2.24219 2.24219,-2.24219zm0,0" fill="#000000"/>
  <g id="svg_20" clip-path="url(#c63d8e47f6)">
   <path id="svg_21" fill-rule="nonzero" d="m97.72656,232.25781l17.9375,0l0,62.78125l-17.9375,0l0,-62.78125zm0,0" fill="#000000"/>
  </g>
  <g id="svg_22" clip-path="url(#ba229e9d61)">
   <path id="svg_23" fill-rule="nonzero" d="m120.14844,232.25781l17.9375,0l0,62.78125l-17.9375,0l0,-62.78125zm0,0" fill="#000000"/>
  </g>
  <g id="svg_24" clip-path="url(#01b7b32c93)">
   <path id="svg_25" fill-rule="nonzero" d="m283.82813,79.78906l-156.95313,0c-6.17969,0 -11.21094,5.03125 -11.21094,11.21094l0,20.73047c4.92578,-0.55078 9.63282,0.72266 13.45313,3.32422l0,-19.57031c0,-1.23829 1.0039,-2.24219 2.24219,-2.24219l147.98437,0c1.23828,0 2.24219,1.0039 2.24219,2.24219l0,89.6875c0,1.23828 -1.00391,2.24218 -2.24219,2.24218l-136.77344,0l0,13.45313l141.25782,0c6.18359,0 11.21093,-5.02735 11.21093,-11.21094l0,-98.65625c0,-6.17969 -5.02734,-11.21094 -11.21093,-11.21094zm0,0" fill="#000000"/>
  </g>
  <g id="svg_26" clip-path="url(#e2a3ab8754)">
   <path id="svg_27" fill-rule="nonzero" d="m187.41406,158.26563c0,-3.70704 -3.01562,-6.72657 -6.72656,-6.72657l-76.23437,0c-13.59766,0 -24.66407,11.06641 -24.66407,24.66407l0,40.35937c0,6.18359 5.03125,11.21094 11.21094,11.21094l2.24219,0l0,-47.08594c0,-1.23828 1.0039,-2.24219 2.24219,-2.24219c1.23828,0 2.24218,1.00391 2.24218,2.24219l0,47.08594l40.35938,0l0,-60.53906c0,-1.23829 1.0039,-2.24219 2.24219,-2.24219l40.35937,0c3.71484,0 6.72656,-3.01172 6.72656,-6.72656zm0,0" fill="#000000"/>
  </g>
 </g>
</svg>