<svg width="375" height="374.999991" xmlns="http://www.w3.org/2000/svg" version="1.0" preserveAspectRatio="xMidYMid meet" zoomAndPan="magnify">
 <defs>
  <clipPath id="4a0e9cf7ab">
   <path id="svg_1" clip-rule="nonzero" d="m10.95703,10.95703l353.25,0l0,353.25l-353.25,0l0,-353.25zm0,0"/>
  </clipPath>
 </defs>
 <g>
  <title>Layer 1</title>
  <g id="svg_2" clip-path="url(#4a0e9cf7ab)">
   <path id="svg_3" fill-rule="evenodd" d="m207.78125,364.04297l-40.35937,0c-9.10547,0 -16.55469,-7.24609 -17.79688,-17.38672l-3.72656,-33.32031c-6.00391,-2.07031 -12.00391,-4.55469 -17.80078,-7.45313l-26.28516,21.11328c-7.86328,6.20704 -18.41797,6.20704 -24.83594,-0.41406l-28.55859,-28.35547c-6.41797,-6.625 -6.625,-16.97265 -0.20703,-24.83593l21.10937,-26.49219c-2.89843,-5.58985 -5.38281,-11.58985 -7.44922,-17.59375l-33.53125,-3.72266c-9.93359,-1.24219 -17.38281,-8.69531 -17.38281,-17.80078l0,-40.35937c0,-9.10547 7.44922,-16.55469 17.38281,-17.79688l33.53125,-3.72656c2.06641,-6.00391 4.55079,-12.00391 7.44922,-17.80078l-21.10937,-26.28516c-6.41797,-7.86328 -6.21094,-18.41797 0.20703,-24.83594l28.55859,-28.35156c6.41797,-6.625 16.97266,-6.83203 24.83594,-0.41406l26.28516,21.10937c5.79687,-2.89843 11.79687,-5.38281 17.80078,-7.44922l3.72656,-33.53125c1.24219,-9.93359 8.69141,-17.38281 17.79688,-17.38281l40.35937,0c9.10547,0 16.55859,7.44922 17.59375,17.38281l3.72266,33.53125c6.21093,2.06641 12.21093,4.55079 17.80078,7.44922l26.49219,-21.10937c7.86328,-6.41797 18.21093,-6.21094 24.83593,0.41406l28.35547,28.35156c6.6211,6.41797 6.6211,16.97266 0.41406,24.83594l-21.11328,26.28516c2.89844,5.79687 5.38282,11.79687 7.45313,17.80078l33.52734,3.72656c9.9336,1.24219 17.17969,8.69141 17.17969,17.79688l0,40.15234c0,9.3125 -7.24609,16.76562 -17.17969,17.80078l-33.52734,3.72266c-2.07031,6.21093 -4.55469,12.0039 -7.45313,17.80078l21.11328,26.49219c6.20704,7.86328 6.20704,18.21093 -0.41406,24.83593l-28.35547,28.35547c-6.625,6.6211 -16.97265,6.6211 -24.83593,0.41406l-26.28516,-21.11328c-5.79688,2.89844 -11.79688,5.38282 -17.80078,7.45313l-3.72266,33.32031c-1.24219,10.14063 -8.69531,17.38672 -17.80078,17.38672zm-20.28125,-74.71484c-56.08984,0 -101.62109,-45.53516 -101.62109,-101.82813c0,-56.08984 45.53125,-101.62109 101.62109,-101.62109c56.08594,0 101.82813,45.53125 101.82813,101.62109c0,56.29297 -45.74219,101.82813 -101.82813,101.82813zm0,0" fill="#ffff00"/>
  </g>
  <path id="svg_4" fill-rule="evenodd" d="m130.375,187.5l24.83594,25.04297c5.17578,5.17187 1.65625,14.07422 -5.79297,14.07422c-2.27734,0 -4.34766,-1.03516 -5.79688,-2.48438l-30.83593,-30.63281c-3.10547,-3.3125 -3.10547,-8.48437 0,-11.79687l30.83593,-30.62891c2.07032,-2.07031 4.96875,-3.10547 7.86329,-2.27734c6.0039,1.65625 8.48828,9.3125 3.72656,13.86718l-24.83594,24.83594zm114.24609,0l-24.83593,-24.83594c-2.07032,-2.07031 -2.89844,-4.96875 -2.07032,-7.86718c1.65625,-6 9.10547,-8.48438 13.86719,-3.72266l30.63281,30.62891c3.3086,3.10546 3.3086,8.48437 0,11.58984l-30.63281,30.83984c-1.65625,1.44922 -3.72656,2.48438 -5.79297,2.48438c-7.45312,0 -11.17968,-9.10938 -6.0039,-14.28125l24.83593,-24.83594zm-76.99218,43.875c-6.20703,0 -10.34766,-6.82812 -7.03516,-12.41797l40.98047,-70.98828c1.44531,-2.69141 4.13672,-4.34766 7.24219,-4.34766c6.20703,0.20704 10.34765,6.83204 7.03515,12.625l-40.97656,70.98829c-1.44922,2.6914 -4.14062,4.14062 -7.24609,4.14062zm0,0" fill="#ffff00"/>
 </g>
</svg>