<svg xmlns="http://www.w3.org/2000/svg" xmlns:xlink="http://www.w3.org/1999/xlink" width="500" zoomAndPan="magnify" viewBox="0 0 375 374.999991" height="500" preserveAspectRatio="xMidYMid meet" version="1.0"><defs><clipPath id="f19e47cbda"><path d="M 4.292969 6.335938 L 370.707031 6.335938 L 370.707031 372.75 L 4.292969 372.75 Z M 4.292969 6.335938 " clip-rule="nonzero"/></clipPath><clipPath id="e53be2d73e"><path d="M 187.5 6.335938 C 86.316406 6.335938 4.292969 88.359375 4.292969 189.542969 C 4.292969 290.726562 86.316406 372.75 187.5 372.75 C 288.683594 372.75 370.707031 290.726562 370.707031 189.542969 C 370.707031 88.359375 288.683594 6.335938 187.5 6.335938 Z M 187.5 6.335938 " clip-rule="nonzero"/></clipPath><clipPath id="3aebf6942c"><path d="M 50.253906 120.203125 L 313 120.203125 L 313 211 L 50.253906 211 Z M 50.253906 120.203125 " clip-rule="nonzero"/></clipPath><clipPath id="10e89d692b"><path d="M 50.253906 154 L 182 154 L 182 211 L 50.253906 211 Z M 50.253906 154 " clip-rule="nonzero"/></clipPath></defs><g clip-path="url(#f19e47cbda)"><g clip-path="url(#e53be2d73e)"><path fill="#ffffff" d="M 4.292969 6.335938 L 370.707031 6.335938 L 370.707031 372.75 L 4.292969 372.75 Z M 4.292969 6.335938 " fill-opacity="1" fill-rule="nonzero"/></g></g><path fill="#3d3d3d" d="M 139.121094 138.769531 C 120.769531 138.769531 105.988281 146.625 105.988281 156.390625 L 105.988281 222.324219 C 105.988281 222.625 106.035156 222.921875 106.0625 223.21875 C 106.035156 223.417969 106.007812 223.617188 105.988281 223.816406 C 105.988281 224.980469 106.109375 226.140625 106.351562 227.300781 C 106.59375 228.460938 106.957031 229.613281 107.441406 230.753906 C 107.925781 231.894531 108.527344 233.023438 109.25 234.140625 C 109.96875 235.253906 110.804688 236.351562 111.753906 237.425781 C 112.699219 238.503906 113.761719 239.554688 114.929688 240.582031 C 116.097656 241.609375 117.371094 242.605469 118.75 243.574219 C 120.128906 244.542969 121.601562 245.480469 123.175781 246.378906 C 124.75 247.28125 126.414062 248.140625 128.167969 248.964844 C 129.917969 249.789062 131.753906 250.570312 133.671875 251.308594 C 135.589844 252.046875 137.578125 252.742188 139.640625 253.390625 C 141.703125 254.035156 143.828125 254.632812 146.015625 255.183594 C 148.203125 255.734375 150.441406 256.230469 152.730469 256.675781 C 155.023438 257.121094 157.355469 257.511719 159.726562 257.851562 C 162.101562 258.191406 164.503906 258.472656 166.9375 258.699219 C 169.367188 258.925781 171.820312 259.097656 174.285156 259.210938 C 176.753906 259.324219 179.230469 259.382812 181.707031 259.382812 C 184.1875 259.382812 186.664062 259.324219 189.132812 259.210938 C 191.597656 259.097656 194.050781 258.925781 196.480469 258.699219 C 198.914062 258.472656 201.316406 258.191406 203.691406 257.851562 C 206.0625 257.511719 208.394531 257.121094 210.6875 256.675781 C 212.976562 256.230469 215.214844 255.734375 217.402344 255.183594 C 219.589844 254.632812 221.714844 254.035156 223.777344 253.390625 C 225.839844 252.742188 227.828125 252.050781 229.746094 251.308594 C 231.664062 250.570312 233.5 249.789062 235.25 248.964844 C 237.003906 248.140625 238.667969 247.28125 240.242188 246.378906 C 241.816406 245.480469 243.292969 244.542969 244.667969 243.574219 C 246.046875 242.605469 247.320312 241.609375 248.488281 240.582031 C 249.65625 239.554688 250.71875 238.503906 251.667969 237.425781 C 252.613281 236.351562 253.449219 235.253906 254.167969 234.140625 C 254.890625 233.027344 255.492188 231.898438 255.976562 230.753906 C 256.457031 229.613281 256.820312 228.460938 257.066406 227.300781 C 257.308594 226.140625 257.429688 224.980469 257.429688 223.816406 C 257.421875 223.480469 257.40625 223.148438 257.378906 222.816406 C 257.386719 222.644531 257.429688 222.492188 257.429688 222.324219 L 257.429688 156.390625 C 257.429688 146.625 242.648438 138.769531 224.296875 138.769531 Z M 139.121094 138.769531 " fill-opacity="1" fill-rule="nonzero"/><g clip-path="url(#3aebf6942c)"><path fill="#333333" d="M 181.707031 120.203125 L 50.4375 154.824219 L 50.839844 162.910156 L 181.707031 210.804688 L 312.578125 162.910156 L 312.980469 154.824219 Z M 181.707031 120.203125 " fill-opacity="1" fill-rule="nonzero"/></g><g clip-path="url(#10e89d692b)"><path fill="#666666" d="M 181.707031 210.804688 L 181.707031 202.707031 L 50.4375 154.824219 L 50.839844 162.910156 Z M 181.707031 210.804688 " fill-opacity="1" fill-rule="nonzero"/></g><path fill="#f3bb35" d="M 295.871094 198.582031 L 281.292969 270.5625 C 289.691406 278.433594 306.773438 278.871094 317.558594 270.5625 L 302.980469 198.582031 L 299.421875 198.617188 Z M 295.871094 198.582031 " fill-opacity="1" fill-rule="nonzero"/><path fill="#f3a035" d="M 281.292969 270.566406 C 281.558594 270.8125 281.824219 271.050781 282.105469 271.28125 C 282.382812 271.511719 282.667969 271.734375 282.964844 271.949219 C 283.257812 272.167969 283.5625 272.378906 283.871094 272.582031 C 284.179688 272.78125 284.5 272.976562 284.824219 273.164062 C 285.148438 273.347656 285.472656 273.523438 285.808594 273.695312 C 286.144531 273.863281 286.488281 274.035156 286.839844 274.195312 C 287.1875 274.359375 287.539062 274.5 287.898438 274.644531 C 288.253906 274.789062 288.617188 274.925781 288.984375 275.054688 C 289.355469 275.183594 289.730469 275.296875 290.109375 275.40625 C 290.488281 275.515625 290.871094 275.625 291.253906 275.71875 C 291.640625 275.8125 292.035156 275.90625 292.429688 275.988281 C 292.824219 276.0625 293.210938 276.136719 293.613281 276.207031 C 294.011719 276.28125 294.417969 276.335938 294.824219 276.390625 C 295.230469 276.449219 295.636719 276.484375 296.046875 276.523438 C 296.457031 276.558594 296.871094 276.578125 297.285156 276.59375 C 297.699219 276.613281 298.117188 276.632812 298.535156 276.632812 C 298.953125 276.636719 299.367188 276.636719 299.785156 276.625 C 300.203125 276.609375 300.625 276.585938 301.046875 276.550781 C 301.464844 276.511719 301.886719 276.492188 302.304688 276.4375 C 302.722656 276.402344 303.144531 276.328125 303.5625 276.273438 C 303.984375 276.21875 304.398438 276.144531 304.8125 276.070312 C 305.230469 275.996094 305.648438 275.90625 306.0625 275.8125 C 306.480469 275.71875 306.882812 275.617188 307.296875 275.507812 C 307.707031 275.398438 308.121094 275.289062 308.527344 275.164062 C 308.933594 275.035156 309.335938 274.90625 309.738281 274.761719 C 310.136719 274.613281 310.535156 274.464844 310.929688 274.304688 C 311.324219 274.136719 311.71875 273.984375 312.105469 273.808594 C 312.492188 273.640625 312.871094 273.445312 313.25 273.253906 C 313.628906 273.0625 314.003906 272.859375 314.375 272.652344 C 314.746094 272.441406 315.113281 272.226562 315.472656 272.003906 C 315.832031 271.777344 316.183594 271.546875 316.53125 271.304688 C 316.878906 271.0625 317.222656 270.8125 317.5625 270.550781 L 302.980469 198.570312 L 299.421875 198.605469 C 299.421875 198.605469 325.058594 283.378906 281.292969 270.550781 Z M 281.292969 270.566406 " fill-opacity="1" fill-rule="nonzero"/><path fill="#4d4d4d" d="M 299.480469 193.074219 C 299.84375 193.074219 300.203125 193.09375 300.5625 193.128906 C 300.921875 193.164062 301.269531 193.21875 301.605469 193.289062 C 301.941406 193.359375 302.261719 193.445312 302.566406 193.546875 C 302.871094 193.648438 303.152344 193.761719 303.410156 193.894531 C 303.667969 194.023438 303.898438 194.164062 304.101562 194.316406 C 304.300781 194.46875 304.472656 194.628906 304.613281 194.796875 C 304.753906 194.96875 304.859375 195.140625 304.929688 195.320312 C 305 195.5 305.035156 195.683594 305.035156 195.867188 L 305.035156 207.542969 C 305.035156 207.726562 305 207.90625 304.929688 208.085938 C 304.859375 208.265625 304.753906 208.441406 304.613281 208.609375 C 304.472656 208.78125 304.300781 208.941406 304.101562 209.09375 C 303.898438 209.246094 303.667969 209.386719 303.410156 209.515625 C 303.152344 209.644531 302.871094 209.761719 302.566406 209.863281 C 302.261719 209.964844 301.941406 210.050781 301.605469 210.121094 C 301.269531 210.191406 300.921875 210.242188 300.5625 210.28125 C 300.203125 210.316406 299.84375 210.332031 299.480469 210.332031 C 299.113281 210.332031 298.753906 210.316406 298.394531 210.28125 C 298.035156 210.242188 297.6875 210.191406 297.351562 210.121094 C 297.015625 210.050781 296.695312 209.964844 296.390625 209.863281 C 296.085938 209.761719 295.808594 209.644531 295.546875 209.515625 C 295.289062 209.386719 295.058594 209.246094 294.859375 209.09375 C 294.65625 208.941406 294.484375 208.78125 294.34375 208.609375 C 294.203125 208.441406 294.097656 208.265625 294.027344 208.085938 C 293.957031 207.90625 293.921875 207.726562 293.921875 207.542969 L 293.921875 195.867188 C 293.921875 195.683594 293.957031 195.5 294.027344 195.320312 C 294.097656 195.140625 294.203125 194.96875 294.34375 194.796875 C 294.484375 194.628906 294.65625 194.46875 294.859375 194.316406 C 295.058594 194.164062 295.289062 194.023438 295.546875 193.894531 C 295.808594 193.761719 296.085938 193.648438 296.390625 193.546875 C 296.695312 193.445312 297.015625 193.359375 297.351562 193.289062 C 297.6875 193.21875 298.035156 193.164062 298.394531 193.128906 C 298.753906 193.09375 299.113281 193.074219 299.480469 193.074219 Z M 299.480469 193.074219 " fill-opacity="1" fill-rule="nonzero"/><path fill="#f3a035" d="M 306.605469 191.246094 C 306.605469 191.800781 306.558594 192.347656 306.46875 192.890625 C 306.378906 193.433594 306.242188 193.960938 306.0625 194.472656 C 305.882812 194.980469 305.664062 195.46875 305.40625 195.929688 C 305.144531 196.386719 304.847656 196.8125 304.519531 197.203125 C 304.1875 197.59375 303.828125 197.945312 303.4375 198.253906 C 303.050781 198.558594 302.636719 198.820312 302.207031 199.03125 C 301.773438 199.242188 301.328125 199.402344 300.871094 199.511719 C 300.410156 199.617188 299.945312 199.671875 299.480469 199.671875 C 299.011719 199.671875 298.546875 199.617188 298.089844 199.511719 C 297.628906 199.402344 297.183594 199.242188 296.75 199.03125 C 296.320312 198.820312 295.910156 198.558594 295.519531 198.253906 C 295.128906 197.945312 294.769531 197.59375 294.4375 197.203125 C 294.109375 196.8125 293.8125 196.386719 293.554688 195.929688 C 293.292969 195.46875 293.074219 194.980469 292.894531 194.472656 C 292.714844 193.960938 292.578125 193.433594 292.488281 192.890625 C 292.398438 192.347656 292.351562 191.800781 292.351562 191.246094 C 292.351562 190.695312 292.398438 190.144531 292.488281 189.601562 C 292.578125 189.058594 292.714844 188.535156 292.894531 188.023438 C 293.074219 187.511719 293.292969 187.027344 293.550781 186.566406 C 293.8125 186.105469 294.109375 185.679688 294.4375 185.289062 C 294.769531 184.898438 295.128906 184.546875 295.519531 184.242188 C 295.910156 183.933594 296.320312 183.675781 296.75 183.460938 C 297.183594 183.25 297.628906 183.089844 298.089844 182.984375 C 298.546875 182.875 299.011719 182.820312 299.480469 182.820312 C 299.945312 182.820312 300.410156 182.875 300.871094 182.984375 C 301.328125 183.089844 301.773438 183.25 302.207031 183.460938 C 302.636719 183.675781 303.050781 183.933594 303.4375 184.242188 C 303.828125 184.546875 304.1875 184.898438 304.519531 185.289062 C 304.847656 185.679688 305.144531 186.105469 305.40625 186.566406 C 305.664062 187.027344 305.882812 187.511719 306.0625 188.023438 C 306.242188 188.535156 306.378906 189.058594 306.46875 189.601562 C 306.558594 190.144531 306.605469 190.695312 306.605469 191.246094 Z M 306.605469 191.246094 " fill-opacity="1" fill-rule="nonzero"/><path stroke-linecap="round" transform="matrix(24.425576, 0, 0, 24.442134, -1711.227075, -4328.724916)" fill="none" stroke-linejoin="round" d="M 82.31976 185.000017 C 82.509911 183.906395 81.135679 183.514845 77.498034 183.159733 " stroke="#f3a035" stroke-width="0.131" stroke-opacity="1" stroke-miterlimit="4"/></svg>