<svg xmlns="http://www.w3.org/2000/svg" xmlns:xlink="http://www.w3.org/1999/xlink" width="500" zoomAndPan="magnify" viewBox="0 0 375 374.999991" height="500" preserveAspectRatio="xMidYMid meet" version="1.0"><defs><clipPath id="39f02633a1"><path d="M 4.292969 6.335938 L 370.707031 6.335938 L 370.707031 372.75 L 4.292969 372.75 Z M 4.292969 6.335938 " clip-rule="nonzero"/></clipPath><clipPath id="075d9eeeb4"><path d="M 187.5 6.335938 C 86.316406 6.335938 4.292969 88.359375 4.292969 189.542969 C 4.292969 290.726562 86.316406 372.75 187.5 372.75 C 288.683594 372.75 370.707031 290.726562 370.707031 189.542969 C 370.707031 88.359375 288.683594 6.335938 187.5 6.335938 Z M 187.5 6.335938 " clip-rule="nonzero"/></clipPath><clipPath id="83c80dae21"><path d="M 187 142 L 297.894531 142 L 297.894531 297.894531 L 187 297.894531 Z M 187 142 " clip-rule="nonzero"/></clipPath><clipPath id="69eb9debc1"><path d="M 77.394531 187 L 234 187 L 234 297.894531 L 77.394531 297.894531 Z M 77.394531 187 " clip-rule="nonzero"/></clipPath><clipPath id="56c71aa46b"><path d="M 143 77.394531 L 232 77.394531 L 232 170 L 143 170 Z M 143 77.394531 " clip-rule="nonzero"/></clipPath></defs><g clip-path="url(#39f02633a1)"><g clip-path="url(#075d9eeeb4)"><path fill="#ffffff" d="M 4.292969 6.335938 L 370.707031 6.335938 L 370.707031 372.75 L 4.292969 372.75 Z M 4.292969 6.335938 " fill-opacity="1" fill-rule="nonzero"/></g></g><g clip-path="url(#83c80dae21)"><path fill="#24c066" d="M 187.644531 187.640625 L 187.644531 232.550781 C 196.253906 232.550781 201.683594 232.121094 209.832031 228.148438 C 220.5 222.925781 233.234375 230.636719 233.234375 242.773438 C 233.234375 254.910156 220.5 262.605469 209.832031 257.394531 C 201.683594 253.410156 196.253906 252.980469 187.644531 252.980469 L 187.644531 297.894531 L 297.898438 297.894531 L 297.898438 252.980469 C 289.292969 252.980469 283.863281 253.410156 275.710938 257.394531 C 265.046875 262.605469 252.3125 254.894531 252.3125 242.773438 C 252.3125 230.648438 265.046875 222.925781 275.710938 228.148438 C 283.847656 232.121094 289.292969 232.550781 297.898438 232.550781 L 297.898438 187.640625 L 252.988281 187.640625 C 252.988281 179.042969 253.417969 173.601562 257.390625 165.460938 C 262.609375 154.796875 254.902344 142.050781 242.765625 142.050781 C 230.628906 142.050781 222.933594 154.796875 228.140625 165.460938 C 232.125 173.601562 232.554688 179.042969 232.554688 187.640625 Z M 187.644531 187.640625 " fill-opacity="1" fill-rule="evenodd"/></g><g clip-path="url(#69eb9debc1)"><path fill="#52acf9" d="M 187.644531 187.640625 L 142.734375 187.640625 C 142.734375 196.246094 143.164062 201.6875 147.148438 209.828125 C 152.355469 220.492188 144.648438 233.226562 132.523438 233.226562 C 120.402344 233.226562 112.691406 220.492188 117.902344 209.828125 C 121.886719 201.6875 122.300781 196.246094 122.300781 187.640625 L 77.390625 187.640625 L 77.390625 297.894531 L 122.304688 297.894531 C 122.304688 289.285156 121.886719 283.855469 117.902344 275.703125 C 112.679688 265.039062 120.386719 252.304688 132.523438 252.304688 C 144.660156 252.304688 152.355469 265.039062 147.148438 275.703125 C 143.164062 283.855469 142.734375 289.300781 142.734375 297.894531 L 187.644531 297.894531 L 187.644531 252.980469 C 196.238281 252.980469 201.695312 253.410156 209.835938 257.394531 C 220.488281 262.605469 233.234375 254.894531 233.234375 242.773438 C 233.234375 230.648438 220.484375 222.941406 209.835938 228.148438 C 201.695312 232.121094 196.238281 232.550781 187.644531 232.550781 L 187.644531 187.636719 Z M 187.644531 187.640625 " fill-opacity="1" fill-rule="evenodd"/></g><path fill="#868f9e" d="M 203.140625 195.789062 L 172.148438 195.789062 L 172.148438 201.921875 C 172.148438 205.28125 174.898438 208.042969 178.269531 208.042969 L 197.019531 208.042969 C 200.394531 208.042969 203.140625 205.28125 203.140625 201.921875 Z M 203.140625 195.789062 " fill-opacity="1" fill-rule="evenodd"/><path fill="#868f9e" d="M 167.761719 181.609375 L 207.527344 181.609375 L 207.527344 192.351562 C 207.527344 194.242188 205.980469 195.789062 204.089844 195.789062 L 171.199219 195.789062 C 169.3125 195.789062 167.761719 194.242188 167.761719 192.351562 Z M 167.761719 181.609375 " fill-opacity="1" fill-rule="evenodd"/><g clip-path="url(#56c71aa46b)"><path fill="#fcaa24" d="M 210.695312 169.316406 C 218.296875 151.113281 231.332031 137.386719 231.332031 121.085938 C 231.332031 96.957031 211.773438 77.398438 187.644531 77.398438 C 163.515625 77.398438 143.957031 96.957031 143.957031 121.085938 C 143.957031 137.386719 156.992188 151.113281 164.597656 169.316406 Z M 210.695312 169.316406 " fill-opacity="1" fill-rule="evenodd"/></g><path fill="#fcaa24" d="M 237.386719 89.183594 C 238.703125 88.425781 240.394531 88.871094 241.152344 90.183594 C 241.90625 91.5 241.464844 93.179688 240.148438 93.949219 L 234.769531 97.046875 C 233.457031 97.816406 231.777344 97.359375 231.019531 96.042969 C 230.253906 94.730469 230.707031 93.050781 232.023438 92.292969 L 237.386719 89.179688 Z M 128.617188 123.847656 C 127.09375 123.847656 125.855469 122.609375 125.855469 121.085938 C 125.855469 119.5625 127.09375 118.324219 128.617188 118.324219 L 134.816406 118.324219 C 136.339844 118.324219 137.578125 119.5625 137.578125 121.085938 C 137.578125 122.609375 136.339844 123.847656 134.816406 123.847656 Z M 135.140625 93.949219 C 133.828125 93.179688 133.382812 91.5 134.140625 90.183594 C 134.90625 88.871094 136.585938 88.425781 137.902344 89.183594 L 143.28125 92.292969 C 144.597656 93.050781 145.039062 94.730469 144.285156 96.042969 C 143.515625 97.359375 141.835938 97.816406 140.519531 97.046875 Z M 246.683594 118.324219 C 248.207031 118.324219 249.433594 119.5625 249.433594 121.085938 C 249.433594 122.609375 248.207031 123.847656 246.683594 123.847656 L 240.472656 123.847656 C 238.949219 123.847656 237.714844 122.609375 237.714844 121.085938 C 237.714844 119.5625 238.949219 118.324219 240.472656 118.324219 Z M 246.683594 118.324219 " fill-opacity="1" fill-rule="nonzero"/><path fill="#fcbc44" d="M 180.09375 174.214844 L 195.378906 174.214844 C 195.378906 167.027344 191.628906 147.246094 192.152344 131.464844 C 192.671875 115.679688 195.679688 103.882812 205.574219 112.648438 C 214.457031 120.511719 214.46875 126.90625 210.027344 131.347656 C 205.589844 135.773438 196.707031 138.234375 187.8125 138.222656 C 178.921875 138.195312 170.011719 135.695312 165.535156 131.242188 C 161.042969 126.800781 160.976562 120.421875 169.753906 112.648438 C 179.648438 103.882812 182.695312 115.679688 183.257812 131.464844 C 183.816406 147.246094 180.09375 167.023438 180.09375 174.214844 Z M 180.09375 174.214844 " fill-opacity="1" fill-rule="evenodd"/><path fill="#929aa8" d="M 168.046875 182.558594 L 207.242188 182.558594 C 209.144531 182.558594 210.695312 181.011719 210.695312 179.109375 L 210.695312 169.316406 L 164.597656 169.316406 L 164.597656 179.109375 C 164.597656 181.011719 166.148438 182.558594 168.046875 182.558594 Z M 168.046875 182.558594 " fill-opacity="1" fill-rule="evenodd"/></svg>