<svg xmlns="http://www.w3.org/2000/svg" xmlns:xlink="http://www.w3.org/1999/xlink" width="500" zoomAndPan="magnify" viewBox="0 0 375 374.999991" height="500" preserveAspectRatio="xMidYMid meet" version="1.0"><defs><clipPath id="c6926c12c4"><path d="M 4.292969 6.335938 L 370.707031 6.335938 L 370.707031 372.75 L 4.292969 372.75 Z M 4.292969 6.335938 " clip-rule="nonzero"/></clipPath><clipPath id="b3ca89fdc2"><path d="M 187.5 6.335938 C 86.316406 6.335938 4.292969 88.359375 4.292969 189.542969 C 4.292969 290.726562 86.316406 372.75 187.5 372.75 C 288.683594 372.75 370.707031 290.726562 370.707031 189.542969 C 370.707031 88.359375 288.683594 6.335938 187.5 6.335938 Z M 187.5 6.335938 " clip-rule="nonzero"/></clipPath><clipPath id="6d6accf901"><path d="M 81 71.6875 L 294 71.6875 L 294 276 L 81 276 Z M 81 71.6875 " clip-rule="nonzero"/></clipPath><clipPath id="9d70644761"><path d="M 187 71.6875 L 237 71.6875 L 237 183 L 187 183 Z M 187 71.6875 " clip-rule="nonzero"/></clipPath><clipPath id="bef102340d"><path d="M 180 276 L 195 276 L 195 307.1875 L 180 307.1875 Z M 180 276 " clip-rule="nonzero"/></clipPath></defs><g clip-path="url(#c6926c12c4)"><g clip-path="url(#b3ca89fdc2)"><path fill="#ffffff" d="M 4.292969 6.335938 L 370.707031 6.335938 L 370.707031 372.75 L 4.292969 372.75 Z M 4.292969 6.335938 " fill-opacity="1" fill-rule="nonzero"/></g></g><g clip-path="url(#6d6accf901)"><path fill="#ffc107" d="M 191.71875 266.007812 L 236.171875 275.503906 C 236.875 275.65625 237.582031 275.769531 238.292969 275.84375 C 239.007812 275.917969 239.722656 275.957031 240.4375 275.957031 C 241.15625 275.957031 241.871094 275.921875 242.582031 275.847656 C 243.296875 275.773438 244.003906 275.660156 244.707031 275.511719 C 245.40625 275.363281 246.097656 275.175781 246.78125 274.957031 C 247.460938 274.734375 248.128906 274.476562 248.785156 274.1875 C 249.441406 273.894531 250.078125 273.570312 250.699219 273.210938 C 251.320312 272.851562 251.921875 272.460938 252.5 272.039062 C 253.082031 271.617188 253.636719 271.167969 254.167969 270.6875 C 254.703125 270.207031 255.207031 269.699219 255.6875 269.167969 C 256.167969 268.632812 256.617188 268.078125 257.039062 267.496094 C 257.460938 266.917969 257.851562 266.316406 258.207031 265.695312 C 258.566406 265.074219 258.890625 264.433594 259.183594 263.777344 C 259.472656 263.125 259.730469 262.453125 259.953125 261.773438 C 260.171875 261.089844 260.355469 260.398438 260.503906 259.695312 C 260.652344 258.996094 260.765625 258.285156 260.839844 257.574219 L 265.546875 212.335938 C 265.851562 209.433594 266.734375 206.71875 268.195312 204.191406 L 290.960938 164.824219 C 291.320312 164.203125 291.644531 163.5625 291.9375 162.910156 C 292.230469 162.253906 292.484375 161.585938 292.707031 160.902344 C 292.929688 160.222656 293.117188 159.53125 293.265625 158.828125 C 293.414062 158.125 293.527344 157.417969 293.601562 156.707031 C 293.675781 155.992188 293.714844 155.277344 293.714844 154.558594 C 293.714844 153.84375 293.679688 153.125 293.601562 152.414062 C 293.527344 151.699219 293.417969 150.992188 293.269531 150.289062 C 293.117188 149.589844 292.933594 148.898438 292.710938 148.214844 C 292.492188 147.53125 292.234375 146.863281 291.941406 146.207031 C 291.648438 145.554688 291.324219 144.914062 290.964844 144.292969 C 290.609375 143.671875 290.21875 143.074219 289.796875 142.492188 C 289.375 141.914062 288.925781 141.355469 288.445312 140.824219 C 287.964844 140.289062 287.457031 139.785156 286.925781 139.304688 C 286.390625 138.824219 285.835938 138.375 285.253906 137.953125 C 284.675781 137.53125 284.074219 137.140625 283.453125 136.785156 C 282.832031 136.425781 282.191406 136.101562 281.539062 135.808594 L 239.996094 117.351562 C 237.328125 116.164062 235.019531 114.488281 233.070312 112.316406 L 202.683594 78.484375 C 202.203125 77.953125 201.699219 77.445312 201.167969 76.964844 C 200.632812 76.484375 200.078125 76.035156 199.5 75.609375 C 198.917969 75.1875 198.320312 74.796875 197.699219 74.441406 C 197.078125 74.082031 196.4375 73.753906 195.785156 73.460938 C 195.128906 73.171875 194.460938 72.914062 193.78125 72.691406 C 193.097656 72.46875 192.40625 72.285156 191.707031 72.136719 C 191.003906 71.984375 190.296875 71.875 189.582031 71.796875 C 188.871094 71.722656 188.15625 71.6875 187.4375 71.6875 C 186.722656 71.6875 186.007812 71.722656 185.292969 71.796875 C 184.582031 71.875 183.875 71.984375 183.171875 72.136719 C 182.472656 72.285156 181.78125 72.46875 181.097656 72.691406 C 180.417969 72.914062 179.75 73.171875 179.09375 73.460938 C 178.4375 73.753906 177.800781 74.082031 177.179688 74.441406 C 176.558594 74.796875 175.960938 75.1875 175.378906 75.609375 C 174.800781 76.035156 174.242188 76.484375 173.710938 76.964844 C 173.179688 77.445312 172.671875 77.953125 172.195312 78.484375 L 141.808594 112.3125 C 139.859375 114.484375 137.550781 116.164062 134.882812 117.347656 L 93.339844 135.808594 C 92.683594 136.101562 92.046875 136.425781 91.425781 136.785156 C 90.804688 137.140625 90.203125 137.53125 89.625 137.953125 C 89.042969 138.375 88.484375 138.824219 87.953125 139.304688 C 87.421875 139.785156 86.914062 140.289062 86.433594 140.824219 C 85.953125 141.355469 85.503906 141.914062 85.082031 142.492188 C 84.660156 143.074219 84.269531 143.671875 83.910156 144.292969 C 83.550781 144.914062 83.226562 145.554688 82.933594 146.210938 C 82.644531 146.863281 82.386719 147.535156 82.164062 148.214844 C 81.945312 148.898438 81.757812 149.589844 81.609375 150.292969 C 81.460938 150.992188 81.347656 151.699219 81.273438 152.414062 C 81.199219 153.128906 81.160156 153.84375 81.164062 154.5625 C 81.164062 155.277344 81.199219 155.992188 81.277344 156.707031 C 81.351562 157.421875 81.464844 158.128906 81.613281 158.828125 C 81.761719 159.53125 81.949219 160.222656 82.167969 160.90625 C 82.390625 161.585938 82.648438 162.253906 82.941406 162.910156 C 83.234375 163.566406 83.558594 164.203125 83.917969 164.824219 L 106.683594 204.191406 C 108.144531 206.71875 109.027344 209.433594 109.332031 212.335938 L 114.039062 257.574219 C 114.113281 258.285156 114.226562 258.996094 114.375 259.695312 C 114.523438 260.398438 114.707031 261.089844 114.929688 261.773438 C 115.148438 262.453125 115.40625 263.125 115.695312 263.777344 C 115.988281 264.433594 116.3125 265.074219 116.671875 265.695312 C 117.027344 266.316406 117.417969 266.917969 117.839844 267.496094 C 118.261719 268.078125 118.710938 268.636719 119.191406 269.167969 C 119.671875 269.703125 120.175781 270.207031 120.710938 270.6875 C 121.242188 271.167969 121.796875 271.617188 122.378906 272.039062 C 122.957031 272.460938 123.558594 272.851562 124.179688 273.210938 C 124.800781 273.570312 125.4375 273.894531 126.09375 274.1875 C 126.75 274.476562 127.417969 274.734375 128.097656 274.957031 C 128.78125 275.175781 129.472656 275.363281 130.175781 275.511719 C 130.875 275.660156 131.582031 275.773438 132.296875 275.847656 C 133.007812 275.921875 133.722656 275.957031 134.441406 275.957031 C 135.15625 275.957031 135.871094 275.917969 136.585938 275.84375 C 137.296875 275.769531 138.003906 275.65625 138.707031 275.503906 L 183.160156 266.007812 C 186.011719 265.398438 188.867188 265.398438 191.71875 266.007812 Z M 191.71875 266.007812 " fill-opacity="1" fill-rule="nonzero"/></g><g clip-path="url(#9d70644761)"><path fill="#ffa000" d="M 236.253906 115.175781 L 187.4375 182.445312 L 187.4375 71.699219 C 188.875 71.695312 190.300781 71.839844 191.707031 72.136719 C 193.113281 72.433594 194.472656 72.875 195.785156 73.460938 C 197.101562 74.050781 198.335938 74.765625 199.5 75.617188 C 200.660156 76.464844 201.71875 77.425781 202.675781 78.5 L 233.078125 112.308594 C 234.023438 113.390625 235.082031 114.347656 236.253906 115.175781 Z M 236.253906 115.175781 " fill-opacity="1" fill-rule="nonzero"/></g><path fill="#ffa000" d="M 108.421875 208.113281 L 187.4375 182.445312 L 122.394531 272.035156 C 121.226562 271.191406 120.160156 270.238281 119.191406 269.171875 C 118.226562 268.105469 117.382812 266.949219 116.660156 265.703125 C 115.941406 264.457031 115.355469 263.148438 114.914062 261.777344 C 114.46875 260.410156 114.171875 259.007812 114.027344 257.574219 L 109.347656 212.351562 C 109.199219 210.90625 108.890625 209.492188 108.421875 208.113281 Z M 108.421875 208.113281 " fill-opacity="1" fill-rule="nonzero"/><path fill="#ffa000" d="M 187.4375 182.445312 L 82.1875 148.195312 C 82.625 146.828125 83.203125 145.527344 83.921875 144.28125 C 84.636719 143.039062 85.472656 141.882812 86.433594 140.816406 C 87.394531 139.75 88.453125 138.796875 89.613281 137.957031 C 90.777344 137.113281 92.011719 136.402344 93.324219 135.820312 L 134.898438 117.363281 C 136.207031 116.753906 137.449219 116.023438 138.621094 115.175781 Z M 187.4375 182.445312 " fill-opacity="1" fill-rule="nonzero"/><path fill="#ffa000" d="M 252.480469 272.035156 C 251.324219 272.886719 250.09375 273.605469 248.78125 274.195312 C 247.472656 274.785156 246.113281 275.230469 244.710938 275.53125 C 243.304688 275.832031 241.882812 275.980469 240.449219 275.976562 C 239.011719 275.976562 237.589844 275.824219 236.1875 275.519531 L 191.710938 266.015625 C 190.300781 265.714844 188.878906 265.566406 187.4375 265.570312 L 187.4375 182.445312 Z M 252.480469 272.035156 " fill-opacity="1" fill-rule="nonzero"/><path fill="#ffa000" d="M 290.949219 164.808594 L 268.195312 204.183594 C 267.476562 205.433594 266.894531 206.742188 266.453125 208.113281 L 187.4375 182.445312 L 292.691406 148.230469 C 293.140625 149.59375 293.441406 150.992188 293.59375 152.417969 C 293.746094 153.847656 293.746094 155.277344 293.597656 156.707031 C 293.445312 158.132812 293.148438 159.53125 292.703125 160.898438 C 292.253906 162.261719 291.671875 163.566406 290.949219 164.808594 Z M 290.949219 164.808594 " fill-opacity="1" fill-rule="nonzero"/><g clip-path="url(#bef102340d)"><path fill="#ffc107" d="M 194.054688 283.542969 L 194.054688 300.566406 C 194.054688 301 194.015625 301.429688 193.929688 301.855469 C 193.84375 302.285156 193.71875 302.699219 193.550781 303.097656 C 193.386719 303.5 193.183594 303.882812 192.941406 304.242188 C 192.699219 304.605469 192.425781 304.941406 192.117188 305.246094 C 191.8125 305.554688 191.476562 305.828125 191.117188 306.070312 C 190.753906 306.3125 190.371094 306.515625 189.972656 306.683594 C 189.570312 306.847656 189.15625 306.972656 188.730469 307.058594 C 188.304688 307.144531 187.875 307.1875 187.4375 307.1875 C 187.003906 307.1875 186.574219 307.144531 186.148438 307.058594 C 185.722656 306.972656 185.308594 306.847656 184.90625 306.683594 C 184.507812 306.515625 184.125 306.3125 183.761719 306.070312 C 183.402344 305.828125 183.066406 305.554688 182.761719 305.246094 C 182.453125 304.941406 182.179688 304.605469 181.9375 304.242188 C 181.695312 303.882812 181.492188 303.5 181.328125 303.097656 C 181.160156 302.699219 181.035156 302.285156 180.949219 301.855469 C 180.863281 301.429688 180.824219 301 180.824219 300.566406 L 180.824219 283.542969 C 180.824219 283.105469 180.863281 282.675781 180.949219 282.25 C 181.035156 281.824219 181.160156 281.410156 181.328125 281.007812 C 181.492188 280.605469 181.695312 280.226562 181.9375 279.863281 C 182.179688 279.503906 182.453125 279.167969 182.761719 278.859375 C 183.066406 278.554688 183.402344 278.277344 183.761719 278.035156 C 184.125 277.796875 184.507812 277.589844 184.90625 277.425781 C 185.308594 277.257812 185.722656 277.132812 186.148438 277.046875 C 186.574219 276.964844 187.003906 276.921875 187.4375 276.921875 C 187.875 276.921875 188.304688 276.964844 188.730469 277.046875 C 189.15625 277.132812 189.570312 277.257812 189.972656 277.425781 C 190.371094 277.589844 190.753906 277.796875 191.117188 278.035156 C 191.476562 278.277344 191.8125 278.554688 192.117188 278.859375 C 192.425781 279.167969 192.699219 279.503906 192.941406 279.863281 C 193.183594 280.226562 193.386719 280.605469 193.550781 281.007812 C 193.71875 281.410156 193.84375 281.824219 193.929688 282.25 C 194.015625 282.675781 194.054688 283.105469 194.054688 283.542969 Z M 194.054688 283.542969 " fill-opacity="1" fill-rule="nonzero"/></g><path fill="#ffc107" d="M 284.417969 207.449219 L 300.597656 212.714844 C 301.011719 212.847656 301.40625 213.019531 301.785156 213.234375 C 302.164062 213.445312 302.519531 213.695312 302.847656 213.976562 C 303.179688 214.257812 303.480469 214.570312 303.746094 214.910156 C 304.015625 215.253906 304.25 215.617188 304.445312 216.003906 C 304.644531 216.390625 304.800781 216.796875 304.917969 217.214844 C 305.039062 217.632812 305.113281 218.058594 305.148438 218.492188 C 305.179688 218.925781 305.171875 219.355469 305.121094 219.789062 C 305.070312 220.21875 304.976562 220.644531 304.84375 221.054688 C 304.710938 221.46875 304.535156 221.867188 304.324219 222.246094 C 304.109375 222.625 303.863281 222.980469 303.582031 223.308594 C 303.300781 223.640625 302.988281 223.941406 302.644531 224.210938 C 302.304688 224.480469 301.941406 224.710938 301.554688 224.910156 C 301.167969 225.105469 300.765625 225.265625 300.347656 225.382812 C 299.929688 225.5 299.503906 225.574219 299.070312 225.609375 C 298.636719 225.644531 298.203125 225.636719 297.773438 225.585938 C 297.339844 225.53125 296.917969 225.441406 296.503906 225.304688 L 280.324219 220.042969 C 279.910156 219.90625 279.515625 219.734375 279.136719 219.523438 C 278.757812 219.308594 278.402344 219.0625 278.070312 218.78125 C 277.742188 218.496094 277.441406 218.183594 277.171875 217.84375 C 276.90625 217.503906 276.671875 217.136719 276.472656 216.75 C 276.277344 216.363281 276.121094 215.960938 276 215.542969 C 275.882812 215.125 275.808594 214.699219 275.773438 214.265625 C 275.738281 213.832031 275.75 213.398438 275.800781 212.964844 C 275.851562 212.535156 275.945312 212.113281 276.078125 211.699219 C 276.210938 211.285156 276.386719 210.890625 276.597656 210.511719 C 276.808594 210.132812 277.058594 209.777344 277.339844 209.445312 C 277.621094 209.113281 277.933594 208.816406 278.273438 208.546875 C 278.617188 208.277344 278.980469 208.042969 279.367188 207.847656 C 279.753906 207.648438 280.15625 207.492188 280.574219 207.375 C 280.992188 207.257812 281.417969 207.179688 281.851562 207.144531 C 282.285156 207.113281 282.71875 207.121094 283.148438 207.171875 C 283.582031 207.222656 284.003906 207.316406 284.417969 207.449219 Z M 284.417969 207.449219 " fill-opacity="1" fill-rule="nonzero"/><path fill="#ffc107" d="M 94.34375 220.054688 L 78.164062 225.316406 C 77.75 225.453125 77.328125 225.542969 76.894531 225.59375 C 76.464844 225.648438 76.03125 225.65625 75.601562 225.621094 C 75.167969 225.585938 74.742188 225.511719 74.324219 225.394531 C 73.90625 225.273438 73.503906 225.117188 73.113281 224.917969 C 72.726562 224.722656 72.363281 224.488281 72.023438 224.21875 C 71.679688 223.949219 71.371094 223.652344 71.085938 223.320312 C 70.804688 222.988281 70.558594 222.636719 70.347656 222.253906 C 70.132812 221.875 69.960938 221.480469 69.824219 221.066406 C 69.691406 220.652344 69.597656 220.230469 69.546875 219.800781 C 69.496094 219.367188 69.488281 218.933594 69.523438 218.5 C 69.554688 218.066406 69.632812 217.640625 69.75 217.222656 C 69.867188 216.804688 70.027344 216.402344 70.222656 216.015625 C 70.421875 215.628906 70.652344 215.261719 70.921875 214.921875 C 71.191406 214.582031 71.492188 214.269531 71.820312 213.988281 C 72.152344 213.703125 72.507812 213.457031 72.886719 213.246094 C 73.265625 213.03125 73.660156 212.859375 74.074219 212.722656 L 90.253906 207.464844 C 90.667969 207.328125 91.089844 207.238281 91.523438 207.183594 C 91.953125 207.132812 92.386719 207.125 92.820312 207.160156 C 93.253906 207.195312 93.679688 207.269531 94.097656 207.386719 C 94.515625 207.507812 94.917969 207.664062 95.304688 207.859375 C 95.691406 208.058594 96.054688 208.292969 96.398438 208.5625 C 96.738281 208.828125 97.050781 209.128906 97.332031 209.460938 C 97.613281 209.789062 97.859375 210.144531 98.074219 210.523438 C 98.285156 210.90625 98.457031 211.300781 98.59375 211.714844 C 98.726562 212.128906 98.820312 212.550781 98.871094 212.980469 C 98.921875 213.414062 98.929688 213.847656 98.898438 214.28125 C 98.863281 214.710938 98.785156 215.140625 98.667969 215.558594 C 98.550781 215.976562 98.394531 216.378906 98.195312 216.765625 C 98 217.152344 97.765625 217.515625 97.496094 217.859375 C 97.226562 218.199219 96.929688 218.511719 96.597656 218.792969 C 96.265625 219.078125 95.914062 219.324219 95.535156 219.535156 C 95.15625 219.75 94.757812 219.921875 94.34375 220.054688 Z M 94.34375 220.054688 " fill-opacity="1" fill-rule="nonzero"/><path fill="#ffc107" d="M 241.472656 96.765625 L 251.476562 82.992188 C 251.730469 82.640625 252.019531 82.316406 252.335938 82.019531 C 252.65625 81.726562 253 81.464844 253.371094 81.238281 C 253.742188 81.011719 254.128906 80.820312 254.539062 80.671875 C 254.945312 80.519531 255.363281 80.410156 255.792969 80.34375 C 256.222656 80.277344 256.652344 80.25 257.089844 80.265625 C 257.523438 80.285156 257.949219 80.34375 258.371094 80.445312 C 258.796875 80.546875 259.203125 80.6875 259.597656 80.871094 C 259.992188 81.050781 260.367188 81.269531 260.71875 81.527344 C 261.070312 81.78125 261.390625 82.070312 261.6875 82.386719 C 261.980469 82.707031 262.242188 83.054688 262.46875 83.421875 C 262.695312 83.792969 262.886719 84.183594 263.035156 84.589844 C 263.1875 85 263.296875 85.417969 263.363281 85.847656 C 263.429688 86.277344 263.457031 86.707031 263.441406 87.144531 C 263.421875 87.578125 263.363281 88.003906 263.261719 88.429688 C 263.160156 88.851562 263.019531 89.257812 262.835938 89.65625 C 262.65625 90.050781 262.4375 90.421875 262.179688 90.773438 L 252.179688 104.546875 C 251.925781 104.898438 251.636719 105.222656 251.320312 105.515625 C 251 105.8125 250.65625 106.074219 250.285156 106.300781 C 249.914062 106.527344 249.523438 106.714844 249.117188 106.867188 C 248.710938 107.015625 248.292969 107.125 247.863281 107.195312 C 247.433594 107.261719 247 107.289062 246.566406 107.269531 C 246.132812 107.253906 245.707031 107.195312 245.28125 107.09375 C 244.859375 106.992188 244.453125 106.851562 244.058594 106.667969 C 243.664062 106.484375 243.289062 106.265625 242.9375 106.011719 C 242.585938 105.757812 242.261719 105.46875 241.96875 105.148438 C 241.671875 104.832031 241.414062 104.484375 241.1875 104.113281 C 240.957031 103.742188 240.769531 103.355469 240.621094 102.945312 C 240.46875 102.539062 240.359375 102.121094 240.292969 101.691406 C 240.222656 101.261719 240.199219 100.828125 240.214844 100.394531 C 240.234375 99.960938 240.292969 99.53125 240.394531 99.109375 C 240.496094 98.6875 240.636719 98.277344 240.820312 97.882812 C 241 97.488281 241.21875 97.117188 241.472656 96.765625 Z M 241.472656 96.765625 " fill-opacity="1" fill-rule="nonzero"/><path fill="#ffc107" d="M 122.695312 104.546875 L 112.695312 90.773438 C 112.441406 90.421875 112.222656 90.050781 112.039062 89.65625 C 111.859375 89.261719 111.714844 88.851562 111.613281 88.429688 C 111.511719 88.007812 111.453125 87.578125 111.4375 87.144531 C 111.417969 86.707031 111.445312 86.277344 111.511719 85.847656 C 111.582031 85.417969 111.691406 85 111.839844 84.589844 C 111.992188 84.183594 112.179688 83.792969 112.40625 83.425781 C 112.632812 83.054688 112.894531 82.707031 113.191406 82.390625 C 113.484375 82.070312 113.808594 81.78125 114.160156 81.527344 C 114.511719 81.269531 114.882812 81.050781 115.277344 80.871094 C 115.671875 80.6875 116.082031 80.546875 116.503906 80.445312 C 116.925781 80.34375 117.355469 80.285156 117.789062 80.269531 C 118.222656 80.25 118.65625 80.277344 119.082031 80.34375 C 119.511719 80.410156 119.929688 80.519531 120.339844 80.671875 C 120.746094 80.820312 121.136719 81.011719 121.503906 81.238281 C 121.875 81.464844 122.222656 81.726562 122.539062 82.019531 C 122.859375 82.316406 123.144531 82.640625 123.402344 82.992188 L 133.402344 96.765625 C 133.65625 97.117188 133.875 97.488281 134.058594 97.882812 C 134.238281 98.277344 134.382812 98.6875 134.484375 99.109375 C 134.585938 99.53125 134.644531 99.960938 134.660156 100.394531 C 134.679688 100.832031 134.652344 101.261719 134.585938 101.691406 C 134.515625 102.121094 134.40625 102.539062 134.257812 102.949219 C 134.105469 103.355469 133.917969 103.746094 133.691406 104.113281 C 133.464844 104.484375 133.203125 104.832031 132.90625 105.148438 C 132.613281 105.46875 132.289062 105.757812 131.9375 106.011719 C 131.585938 106.265625 131.214844 106.484375 130.820312 106.667969 C 130.425781 106.851562 130.015625 106.992188 129.59375 107.09375 C 129.171875 107.195312 128.742188 107.253906 128.308594 107.269531 C 127.875 107.289062 127.441406 107.261719 127.015625 107.195312 C 126.585938 107.125 126.167969 107.015625 125.757812 106.867188 C 125.351562 106.714844 124.960938 106.527344 124.59375 106.300781 C 124.222656 106.074219 123.875 105.8125 123.558594 105.515625 C 123.238281 105.222656 122.953125 104.898438 122.695312 104.546875 Z M 122.695312 104.546875 " fill-opacity="1" fill-rule="nonzero"/><path fill="#eceff1" d="M 236.589844 180.449219 C 236.589844 182.0625 236.511719 183.667969 236.355469 185.269531 C 236.195312 186.875 235.960938 188.464844 235.648438 190.046875 C 235.332031 191.625 234.941406 193.1875 234.476562 194.726562 C 234.007812 196.269531 233.464844 197.785156 232.851562 199.269531 C 232.234375 200.757812 231.546875 202.214844 230.789062 203.632812 C 230.027344 205.054688 229.203125 206.433594 228.308594 207.773438 C 227.414062 209.113281 226.457031 210.40625 225.433594 211.652344 C 224.414062 212.894531 223.332031 214.085938 222.195312 215.226562 C 221.058594 216.367188 219.867188 217.445312 218.621094 218.46875 C 217.375 219.488281 216.085938 220.449219 214.746094 221.34375 C 213.40625 222.238281 212.027344 223.066406 210.609375 223.824219 C 209.191406 224.582031 207.734375 225.269531 206.25 225.886719 C 204.761719 226.503906 203.246094 227.046875 201.707031 227.515625 C 200.167969 227.980469 198.605469 228.371094 197.027344 228.6875 C 195.449219 229 193.859375 229.238281 192.257812 229.394531 C 190.65625 229.550781 189.046875 229.632812 187.4375 229.632812 C 185.828125 229.632812 184.222656 229.550781 182.621094 229.394531 C 181.019531 229.238281 179.429688 229 177.851562 228.6875 C 176.269531 228.371094 174.710938 227.980469 173.171875 227.515625 C 171.628906 227.046875 170.117188 226.503906 168.628906 225.886719 C 167.140625 225.269531 165.6875 224.582031 164.269531 223.824219 C 162.847656 223.066406 161.46875 222.238281 160.132812 221.34375 C 158.792969 220.449219 157.5 219.488281 156.257812 218.46875 C 155.011719 217.445312 153.820312 216.367188 152.683594 215.226562 C 151.542969 214.085938 150.464844 212.894531 149.445312 211.652344 C 148.421875 210.40625 147.464844 209.113281 146.570312 207.773438 C 145.675781 206.433594 144.847656 205.054688 144.089844 203.632812 C 143.332031 202.214844 142.644531 200.757812 142.027344 199.269531 C 141.410156 197.785156 140.871094 196.269531 140.402344 194.726562 C 139.933594 193.1875 139.542969 191.625 139.230469 190.046875 C 138.917969 188.464844 138.679688 186.875 138.523438 185.269531 C 138.367188 183.667969 138.285156 182.0625 138.285156 180.449219 C 138.285156 178.839844 138.367188 177.234375 138.523438 175.628906 C 138.679688 174.027344 138.917969 172.4375 139.230469 170.855469 C 139.542969 169.277344 139.933594 167.714844 140.402344 166.175781 C 140.871094 164.632812 141.410156 163.117188 142.027344 161.628906 C 142.644531 160.140625 143.332031 158.6875 144.089844 157.265625 C 144.847656 155.847656 145.675781 154.464844 146.570312 153.128906 C 147.464844 151.789062 148.421875 150.496094 149.445312 149.25 C 150.464844 148.003906 151.542969 146.8125 152.683594 145.675781 C 153.820312 144.535156 155.011719 143.457031 156.257812 142.433594 C 157.5 141.410156 158.792969 140.453125 160.132812 139.558594 C 161.46875 138.664062 162.847656 137.835938 164.269531 137.078125 C 165.6875 136.316406 167.140625 135.628906 168.628906 135.015625 C 170.117188 134.398438 171.628906 133.855469 173.171875 133.386719 C 174.710938 132.921875 176.269531 132.53125 177.851562 132.214844 C 179.429688 131.902344 181.019531 131.664062 182.621094 131.507812 C 184.222656 131.347656 185.828125 131.269531 187.4375 131.269531 C 189.046875 131.269531 190.65625 131.347656 192.257812 131.507812 C 193.859375 131.664062 195.449219 131.902344 197.027344 132.214844 C 198.605469 132.53125 200.167969 132.921875 201.707031 133.386719 C 203.246094 133.855469 204.761719 134.398438 206.25 135.015625 C 207.734375 135.628906 209.191406 136.316406 210.609375 137.078125 C 212.027344 137.835938 213.40625 138.664062 214.746094 139.558594 C 216.085938 140.453125 217.375 141.410156 218.621094 142.433594 C 219.867188 143.457031 221.058594 144.535156 222.195312 145.675781 C 223.332031 146.8125 224.414062 148.003906 225.433594 149.25 C 226.457031 150.496094 227.414062 151.789062 228.308594 153.128906 C 229.203125 154.464844 230.027344 155.847656 230.789062 157.265625 C 231.546875 158.6875 232.234375 160.140625 232.851562 161.628906 C 233.464844 163.117188 234.007812 164.632812 234.476562 166.175781 C 234.941406 167.714844 235.332031 169.277344 235.648438 170.855469 C 235.960938 172.4375 236.195312 174.027344 236.355469 175.628906 C 236.511719 177.234375 236.589844 178.839844 236.589844 180.449219 Z M 236.589844 180.449219 " fill-opacity="1" fill-rule="nonzero"/><path fill="#03a9f4" d="M 187.4375 229.632812 C 190.953125 229.632812 194.425781 229.265625 197.855469 228.519531 C 201.289062 227.777344 204.605469 226.675781 207.800781 225.21875 C 210.996094 223.761719 214.003906 221.984375 216.816406 219.878906 C 219.628906 217.777344 222.1875 215.398438 224.492188 212.746094 C 223.824219 210.835938 223.011719 208.992188 222.054688 207.207031 C 221.101562 205.425781 220.015625 203.726562 218.796875 202.109375 C 217.582031 200.496094 216.246094 198.984375 214.796875 197.574219 C 213.34375 196.164062 211.796875 194.875 210.144531 193.707031 C 208.496094 192.535156 206.765625 191.5 204.957031 190.597656 C 203.148438 189.695312 201.28125 188.9375 199.355469 188.324219 C 197.429688 187.710938 195.464844 187.25 193.46875 186.9375 C 191.46875 186.628906 189.460938 186.472656 187.4375 186.472656 C 185.417969 186.472656 183.40625 186.628906 181.410156 186.9375 C 179.410156 187.25 177.449219 187.710938 175.523438 188.324219 C 173.597656 188.9375 171.730469 189.695312 169.921875 190.597656 C 168.109375 191.5 166.382812 192.535156 164.730469 193.707031 C 163.082031 194.875 161.53125 196.164062 160.082031 197.574219 C 158.632812 198.984375 157.296875 200.496094 156.082031 202.109375 C 154.863281 203.726562 153.777344 205.425781 152.824219 207.207031 C 151.867188 208.992188 151.054688 210.835938 150.386719 212.746094 C 152.6875 215.398438 155.246094 217.777344 158.0625 219.878906 C 160.875 221.984375 163.878906 223.761719 167.078125 225.21875 C 170.273438 226.675781 173.589844 227.777344 177.019531 228.519531 C 180.453125 229.265625 183.925781 229.632812 187.4375 229.632812 Z M 187.4375 229.632812 " fill-opacity="1" fill-rule="nonzero"/><path fill="#03a9f4" d="M 205.496094 168.40625 C 205.496094 169 205.464844 169.589844 205.40625 170.175781 C 205.351562 170.765625 205.261719 171.351562 205.148438 171.929688 C 205.03125 172.511719 204.890625 173.085938 204.71875 173.652344 C 204.546875 174.21875 204.347656 174.773438 204.121094 175.320312 C 203.894531 175.867188 203.640625 176.402344 203.363281 176.921875 C 203.085938 177.445312 202.78125 177.953125 202.453125 178.445312 C 202.125 178.9375 201.773438 179.410156 201.394531 179.867188 C 201.019531 180.324219 200.625 180.761719 200.207031 181.179688 C 199.789062 181.601562 199.351562 181.996094 198.894531 182.371094 C 198.4375 182.746094 197.960938 183.101562 197.46875 183.429688 C 196.980469 183.757812 196.472656 184.0625 195.949219 184.339844 C 195.429688 184.617188 194.894531 184.871094 194.347656 185.097656 C 193.800781 185.324219 193.246094 185.523438 192.679688 185.695312 C 192.113281 185.867188 191.542969 186.011719 190.960938 186.125 C 190.382812 186.242188 189.796875 186.328125 189.207031 186.386719 C 188.621094 186.445312 188.03125 186.472656 187.4375 186.472656 C 186.847656 186.472656 186.257812 186.445312 185.667969 186.386719 C 185.082031 186.328125 184.496094 186.242188 183.917969 186.125 C 183.335938 186.011719 182.761719 185.867188 182.199219 185.695312 C 181.632812 185.523438 181.074219 185.324219 180.527344 185.097656 C 179.984375 184.871094 179.449219 184.617188 178.925781 184.339844 C 178.40625 184.0625 177.898438 183.757812 177.40625 183.429688 C 176.914062 183.101562 176.441406 182.746094 175.984375 182.371094 C 175.527344 181.996094 175.089844 181.601562 174.671875 181.179688 C 174.253906 180.761719 173.855469 180.324219 173.480469 179.867188 C 173.105469 179.410156 172.753906 178.9375 172.425781 178.445312 C 172.097656 177.953125 171.792969 177.445312 171.515625 176.921875 C 171.234375 176.402344 170.984375 175.867188 170.757812 175.320312 C 170.53125 174.773438 170.332031 174.21875 170.160156 173.652344 C 169.988281 173.085938 169.84375 172.511719 169.730469 171.929688 C 169.613281 171.351562 169.527344 170.765625 169.46875 170.175781 C 169.410156 169.589844 169.382812 169 169.382812 168.40625 C 169.382812 167.816406 169.410156 167.226562 169.46875 166.636719 C 169.527344 166.046875 169.613281 165.460938 169.730469 164.882812 C 169.84375 164.300781 169.988281 163.730469 170.160156 163.164062 C 170.332031 162.597656 170.53125 162.039062 170.757812 161.492188 C 170.984375 160.945312 171.234375 160.414062 171.515625 159.890625 C 171.792969 159.367188 172.097656 158.863281 172.425781 158.371094 C 172.753906 157.878906 173.105469 157.402344 173.480469 156.945312 C 173.855469 156.488281 174.253906 156.050781 174.671875 155.632812 C 175.089844 155.214844 175.527344 154.816406 175.984375 154.441406 C 176.441406 154.066406 176.914062 153.714844 177.40625 153.386719 C 177.898438 153.054688 178.40625 152.753906 178.925781 152.472656 C 179.449219 152.195312 179.984375 151.941406 180.527344 151.714844 C 181.074219 151.488281 181.632812 151.289062 182.199219 151.117188 C 182.761719 150.945312 183.335938 150.804688 183.917969 150.6875 C 184.496094 150.570312 185.082031 150.484375 185.667969 150.425781 C 186.257812 150.371094 186.847656 150.339844 187.4375 150.339844 C 188.03125 150.339844 188.621094 150.371094 189.207031 150.425781 C 189.796875 150.484375 190.382812 150.570312 190.960938 150.6875 C 191.542969 150.804688 192.113281 150.945312 192.679688 151.117188 C 193.246094 151.289062 193.800781 151.488281 194.347656 151.714844 C 194.894531 151.941406 195.429688 152.195312 195.949219 152.472656 C 196.472656 152.753906 196.980469 153.054688 197.46875 153.386719 C 197.960938 153.714844 198.4375 154.066406 198.894531 154.441406 C 199.351562 154.816406 199.789062 155.214844 200.207031 155.632812 C 200.625 156.050781 201.019531 156.488281 201.394531 156.945312 C 201.773438 157.402344 202.125 157.878906 202.453125 158.371094 C 202.78125 158.863281 203.085938 159.367188 203.363281 159.890625 C 203.640625 160.414062 203.894531 160.945312 204.121094 161.492188 C 204.347656 162.039062 204.546875 162.597656 204.71875 163.164062 C 204.890625 163.730469 205.03125 164.300781 205.148438 164.882812 C 205.261719 165.460938 205.351562 166.046875 205.40625 166.636719 C 205.464844 167.226562 205.496094 167.816406 205.496094 168.40625 Z M 205.496094 168.40625 " fill-opacity="1" fill-rule="nonzero"/></svg>